<svg width="862" height="316" fill="none" xmlns="http://www.w3.org/2000/svg"><path d="M36.6 89.5c-7.167 0-13.25-1.583-18.25-4.75S9.533 77.183 6.9 71.55C4.3 65.917 3 59.4 3 52s1.3-13.917 3.9-19.55c2.633-5.633 6.45-10.033 11.45-13.2 5-3.167 11.083-4.75 18.25-4.75 7.2 0 13.3 1.583 18.3 4.75s8.8 7.567 11.4 13.2c2.6 5.633 3.9 12.15 3.9 19.55s-1.3 13.917-3.9 19.55c-2.6 5.633-6.4 10.033-11.4 13.2S43.8 89.5 36.6 89.5zm0-8.5c5.367.033 9.833-1.167 13.4-3.6 3.6-2.467 6.283-5.883 8.05-10.25 1.8-4.367 2.7-9.417 2.7-15.15 0-5.767-.9-10.817-2.7-15.15-1.767-4.333-4.45-7.717-8.05-10.15-3.567-2.433-8.033-3.667-13.4-3.7-5.367-.033-9.833 1.167-13.4 3.6-3.533 2.433-6.2 5.833-8 10.2-1.8 4.367-2.717 9.433-2.75 15.2-.033 5.733.85 10.767 2.65 15.1 1.8 4.333 4.483 7.733 8.05 10.2 3.6 2.433 8.083 3.667 13.45 3.7zm55.942 7V42.1h-18.8V34h46.5v8.1h-18.8V88h-8.9zm35.115 0l.05-54h9v26l22.65-26h11.55l-23.85 27 26.65 27h-12.45l-24.55-26v26h-9.05zm73.827 1.5c-5.067 0-9.334-1.25-12.8-3.75-3.467-2.533-6.1-5.95-7.9-10.25-1.767-4.333-2.65-9.183-2.65-14.55 0-5.433.883-10.3 2.65-14.6 1.8-4.3 4.433-7.683 7.9-10.15 3.5-2.467 7.783-3.7 12.85-3.7 5 0 9.3 1.25 12.9 3.75 3.633 2.467 6.416 5.85 8.35 10.15 1.933 4.3 2.9 9.15 2.9 14.55s-.967 10.25-2.9 14.55c-1.934 4.3-4.717 7.717-8.35 10.25-3.6 2.5-7.917 3.75-12.95 3.75zm-24.85 22.5V34h7.95v39.75h1V112h-8.95zm23.75-30.65c3.566 0 6.516-.9 8.85-2.7 2.333-1.8 4.083-4.233 5.25-7.3 1.166-3.1 1.75-6.567 1.75-10.4 0-3.8-.584-7.233-1.75-10.3-1.134-3.067-2.9-5.5-5.3-7.3-2.367-1.8-5.384-2.7-9.05-2.7-3.5 0-6.4.867-8.7 2.6-2.3 1.7-4.017 4.083-5.15 7.15-1.134 3.033-1.7 6.55-1.7 10.55 0 3.933.55 7.45 1.65 10.55 1.133 3.067 2.866 5.483 5.2 7.25 2.333 1.733 5.316 2.6 8.95 2.6zm57.261 8.15c-5.367 0-10-1.217-13.9-3.65-3.867-2.433-6.85-5.8-8.95-10.1-2.1-4.3-3.15-9.233-3.15-14.8 0-5.667 1.066-10.633 3.2-14.9 2.133-4.267 5.15-7.583 9.05-9.95 3.9-2.4 8.483-3.6 13.75-3.6 5.4 0 10.05 1.217 13.95 3.65 3.9 2.4 6.883 5.75 8.95 10.05 2.1 4.267 3.15 9.183 3.15 14.75 0 5.633-1.05 10.6-3.15 14.9-2.1 4.267-5.1 7.617-9 10.05-3.9 2.4-8.534 3.6-13.9 3.6zm0-8.45c5.6 0 9.766-1.867 12.5-5.6 2.733-3.733 4.1-8.567 4.1-14.5 0-6.1-1.384-10.95-4.15-14.55-2.767-3.633-6.917-5.45-12.45-5.45-3.767 0-6.867.85-9.3 2.55-2.434 1.7-4.25 4.05-5.45 7.05-1.2 3-1.8 6.467-1.8 10.4 0 6.067 1.4 10.933 4.2 14.6 2.8 3.667 6.916 5.5 12.35 5.5zm58.308-53.35c-2.5 0-4.783-.617-6.85-1.85a14.214 14.214 0 01-4.95-4.9c-1.233-2.067-1.85-4.367-1.85-6.9h7.2c0 1.767.633 3.283 1.9 4.55s2.783 1.9 4.55 1.9c1.8 0 3.317-.633 4.55-1.9 1.267-1.267 1.9-2.783 1.9-4.55h7.2c0 2.533-.617 4.833-1.85 6.9-1.2 2.033-2.85 3.667-4.95 4.9-2.067 1.233-4.35 1.85-6.85 1.85zm20.95 6.3v54h-8.6V48.2l-28.3 39.8h-7.35V34h8.6v39.25L329.603 34h7.3zm26.303 54V42.1h-18.8V34h46.5v8.1h-18.8V88h-8.9zm58.565 1.5c-5.3 0-9.933-1.167-13.9-3.5-3.933-2.367-7-5.65-9.2-9.85-2.2-4.233-3.3-9.167-3.3-14.8 0-5.9 1.083-11 3.25-15.3 2.167-4.333 5.183-7.667 9.05-10 3.9-2.367 8.467-3.55 13.7-3.55 5.433 0 10.05 1.25 13.85 3.75 3.833 2.5 6.7 6.067 8.6 10.7 1.933 4.633 2.767 10.15 2.5 16.55h-9v-3.2c-.1-6.633-1.45-11.583-4.05-14.85-2.6-3.3-6.467-4.95-11.6-4.95-5.5 0-9.683 1.767-12.55 5.3-2.867 3.533-4.3 8.6-4.3 15.2 0 6.367 1.433 11.3 4.3 14.8s6.95 5.25 12.25 5.25c3.567 0 6.667-.817 9.3-2.45 2.633-1.633 4.7-3.983 6.2-7.05l8.55 2.95c-2.1 4.767-5.267 8.467-9.5 11.1-4.2 2.6-8.917 3.9-14.15 3.9zm-19.95-26v-7.15h39.9v7.15h-39.9zM473.423 88V34h44.25v54h-8.9V42.45h-26.45V88h-8.9zm51.253 0v-7.65c2 .367 3.516.3 4.55-.2 1.066-.533 1.85-1.45 2.35-2.75.533-1.333.966-3 1.3-5 .566-3.167 1.05-6.7 1.45-10.6.433-3.9.816-8.167 1.15-12.8.366-4.667.7-9.667 1-15h37.75v54h-8.9V42.45h-20.75c-.2 3.067-.45 6.217-.75 9.45-.267 3.233-.55 6.383-.85 9.45-.3 3.033-.634 5.867-1 8.5-.334 2.6-.7 4.85-1.1 6.75-.634 3.267-1.517 5.883-2.65 7.85-1.134 1.933-2.767 3.183-4.9 3.75-2.134.6-5.017.533-8.65-.2zm76.944 1.5c-4.034 0-7.417-.733-10.15-2.2-2.7-1.5-4.75-3.467-6.15-5.9-1.367-2.433-2.05-5.1-2.05-8 0-2.833.533-5.283 1.6-7.35a14.356 14.356 0 014.6-5.2c1.966-1.4 4.316-2.5 7.05-3.3 2.566-.7 5.433-1.3 8.6-1.8 3.2-.533 6.433-1.017 9.7-1.45 3.266-.433 6.316-.85 9.15-1.25l-3.2 1.85c.1-4.8-.867-8.35-2.9-10.65-2-2.3-5.467-3.45-10.4-3.45-3.267 0-6.134.75-8.6 2.25-2.434 1.467-4.15 3.867-5.15 7.2l-8.45-2.55c1.3-4.733 3.816-8.45 7.55-11.15 3.733-2.7 8.65-4.05 14.75-4.05 4.9 0 9.1.883 12.6 2.65 3.533 1.733 6.066 4.367 7.6 7.9.766 1.667 1.25 3.483 1.45 5.45.2 1.933.3 3.967.3 6.1V88h-7.9V75.05l1.85 1.2c-2.034 4.367-4.884 7.667-8.55 9.9-3.634 2.233-8.067 3.35-13.3 3.35zm1.35-7.45c3.2 0 5.966-.567 8.3-1.7 2.366-1.167 4.266-2.683 5.7-4.55 1.433-1.9 2.366-3.967 2.8-6.2.5-1.667.766-3.517.8-5.55.066-2.067.1-3.65.1-4.75l3.1 1.35c-2.9.4-5.75.783-8.55 1.15-2.8.367-5.45.767-7.95 1.2-2.5.4-4.75.883-6.75 1.45a21.958 21.958 0 00-4.15 1.8 9.425 9.425 0 00-3.1 2.85c-.767 1.133-1.15 2.55-1.15 4.25 0 1.467.366 2.867 1.1 4.2.766 1.333 1.933 2.417 3.5 3.25 1.6.833 3.683 1.25 6.25 1.25zm37.5 5.95V34h8.9v22.75h28.4V34h8.9v54h-8.9V65.2h-28.4V88h-8.9zm81.606 1.5c-5.3 0-9.934-1.167-13.9-3.5-3.934-2.367-7-5.65-9.2-9.85-2.2-4.233-3.3-9.167-3.3-14.8 0-5.9 1.083-11 3.25-15.3 2.166-4.333 5.183-7.667 9.05-10 3.9-2.367 8.466-3.55 13.7-3.55 5.433 0 10.05 1.25 13.85 3.75 3.833 2.5 6.7 6.067 8.6 10.7 1.933 4.633 2.766 10.15 2.5 16.55h-9v-3.2c-.1-6.633-1.45-11.583-4.05-14.85-2.6-3.3-6.467-4.95-11.6-4.95-5.5 0-9.684 1.767-12.55 5.3-2.867 3.533-4.3 8.6-4.3 15.2 0 6.367 1.433 11.3 4.3 14.8 2.866 3.5 6.95 5.25 12.25 5.25 3.566 0 6.666-.817 9.3-2.45 2.633-1.633 4.7-3.983 6.2-7.05l8.55 2.95c-2.1 4.767-5.267 8.467-9.5 11.1-4.2 2.6-8.917 3.9-14.15 3.9zm-19.95-26v-7.15h39.9v7.15h-39.9zm115.19 48.5l10.45-28.4.15 8.4-23.6-58h9.35l18.5 46.65h-3.2L846.316 34h9.05l-29.4 78h-8.65zM21.3 188v-45.9H2.5V134H49v8.1H30.2V188h-8.9zm59.965 1.5c-5.067 0-9.334-1.25-12.8-3.75-3.467-2.533-6.1-5.95-7.9-10.25-1.767-4.333-2.65-9.183-2.65-14.55 0-5.433.883-10.3 2.65-14.6 1.8-4.3 4.433-7.683 7.9-10.15 3.5-2.467 7.783-3.7 12.85-3.7 5 0 9.3 1.25 12.9 3.75 3.633 2.467 6.417 5.85 8.35 10.15 1.933 4.3 2.9 9.15 2.9 14.55s-.967 10.25-2.9 14.55c-1.933 4.3-4.717 7.717-8.35 10.25-3.6 2.5-7.917 3.75-12.95 3.75zM56.415 212v-78h7.95v39.75h1V212h-8.95zm23.75-30.65c3.566 0 6.516-.9 8.85-2.7 2.333-1.8 4.083-4.233 5.25-7.3 1.166-3.1 1.75-6.567 1.75-10.4 0-3.8-.584-7.233-1.75-10.3-1.133-3.067-2.9-5.5-5.3-7.3-2.367-1.8-5.383-2.7-9.05-2.7-3.5 0-6.4.867-8.7 2.6-2.3 1.7-4.017 4.083-5.15 7.15-1.133 3.033-1.7 6.55-1.7 10.55 0 3.933.55 7.45 1.65 10.55 1.133 3.067 2.867 5.483 5.2 7.25 2.333 1.733 5.316 2.6 8.95 2.6zm57.261 8.15c-5.367 0-10-1.217-13.9-3.65-3.867-2.433-6.85-5.8-8.95-10.1-2.1-4.3-3.15-9.233-3.15-14.8 0-5.667 1.066-10.633 3.2-14.9 2.133-4.267 5.15-7.583 9.05-9.95 3.9-2.4 8.483-3.6 13.75-3.6 5.4 0 10.05 1.217 13.95 3.65 3.9 2.4 6.883 5.75 8.95 10.05 2.1 4.267 3.15 9.183 3.15 14.75 0 5.633-1.05 10.6-3.15 14.9-2.1 4.267-5.1 7.617-9 10.05-3.9 2.4-8.534 3.6-13.9 3.6zm0-8.45c5.6 0 9.766-1.867 12.5-5.6 2.733-3.733 4.1-8.567 4.1-14.5 0-6.1-1.384-10.95-4.15-14.55-2.767-3.633-6.917-5.45-12.45-5.45-3.767 0-6.867.85-9.3 2.55-2.434 1.7-4.25 4.05-5.45 7.05-1.2 3-1.8 6.467-1.8 10.4 0 6.067 1.4 10.933 4.2 14.6 2.8 3.667 6.916 5.5 12.35 5.5zm35.008 6.95v-54h44.25v54h-8.9v-45.55h-26.45V188h-8.9zm100.454-54v54h-8.6v-39.8l-28.3 39.8h-7.351v-54h8.601v39.25L265.587 134h7.301zm44.503 54v-19.45c-1.8.9-3.984 1.667-6.55 2.3-2.534.633-5.25.95-8.15.95-5.5 0-9.934-1.233-13.3-3.7-3.367-2.467-5.567-6.017-6.6-10.65-.3-1.4-.517-2.85-.65-4.35-.1-1.5-.167-2.867-.2-4.1a108.37 108.37 0 01-.05-2.7V134h9v12.3c0 .967.033 2.167.1 3.6.066 1.4.233 2.767.5 4.1.666 3.3 2.05 5.783 4.15 7.45 2.133 1.667 5.133 2.5 9 2.5 2.6 0 5-.333 7.2-1s4.05-1.55 5.55-2.65V134h8.95v54h-8.95zm44.368 1.5c-5.3 0-9.933-1.167-13.9-3.5-3.933-2.367-7-5.65-9.2-9.85-2.2-4.233-3.3-9.167-3.3-14.8 0-5.9 1.084-11 3.25-15.3 2.167-4.333 5.184-7.667 9.05-10 3.9-2.367 8.467-3.55 13.7-3.55 5.434 0 10.05 1.25 13.85 3.75 3.834 2.5 6.7 6.067 8.6 10.7 1.934 4.633 2.767 10.15 2.5 16.55h-9v-3.2c-.1-6.633-1.45-11.583-4.05-14.85-2.6-3.3-6.466-4.95-11.6-4.95-5.5 0-9.683 1.767-12.55 5.3-2.866 3.533-4.3 8.6-4.3 15.2 0 6.367 1.434 11.3 4.3 14.8 2.867 3.5 6.95 5.25 12.25 5.25 3.567 0 6.667-.817 9.3-2.45 2.634-1.633 4.7-3.983 6.2-7.05l8.55 2.95c-2.1 4.767-5.266 8.467-9.5 11.1-4.2 2.6-8.916 3.9-14.15 3.9zm-19.95-26v-7.15h39.9v7.15h-39.9zm76.382 26c-5.466 0-10.116-1.217-13.95-3.65-3.8-2.467-6.7-5.85-8.7-10.15-2-4.3-3.033-9.2-3.1-14.7.067-5.633 1.117-10.583 3.15-14.85 2.067-4.3 5.017-7.65 8.85-10.05 3.834-2.4 8.45-3.6 13.85-3.6 5.7 0 10.6 1.4 14.7 4.2 4.134 2.8 6.9 6.633 8.3 11.5l-8.8 2.65c-1.133-3.133-2.983-5.567-5.55-7.3-2.533-1.733-5.45-2.6-8.75-2.6-3.7 0-6.75.867-9.15 2.6-2.4 1.7-4.183 4.067-5.35 7.1-1.166 3-1.766 6.45-1.8 10.35.067 6 1.45 10.85 4.15 14.55 2.734 3.667 6.784 5.5 12.15 5.5 3.534 0 6.467-.8 8.8-2.4 2.334-1.633 4.1-3.983 5.3-7.05l9 2.35c-1.866 5.033-4.783 8.883-8.75 11.55-3.966 2.667-8.75 4-14.35 4zm31.255-1.5l.05-54h9v26l22.65-26h11.55l-23.85 27 26.65 27h-12.45l-24.55-26v26h-9.05zm93.227-54v54h-8.6v-39.8l-28.3 39.8h-7.35v-54h8.6v39.25l28.35-39.25h7.3zm6.003 54l20.65-27.3-20.2-26.7h10.6l14.8 19.8 14.65-19.8h10.6l-20.2 26.7 20.7 27.3h-10.65l-15.1-20.4-15.2 20.4h-10.65zM32.5 310.5V289c-5.267.833-10.067.267-14.4-1.7-4.3-2-7.733-5.217-10.3-9.65-2.533-4.467-3.8-10-3.8-16.6 0-6.633 1.267-12.183 3.8-16.65 2.567-4.467 6-7.683 10.3-9.65 4.333-2 9.133-2.583 14.4-1.75v-16.45h8.1V233c5.267-.833 10.05-.25 14.35 1.75 4.333 1.967 7.767 5.183 10.3 9.65 2.567 4.467 3.85 10.017 3.85 16.65 0 6.6-1.283 12.133-3.85 16.6-2.533 4.433-5.967 7.65-10.3 9.65-4.3 1.967-9.083 2.533-14.35 1.7v21.5h-8.1zm0-29.65V241.2c-2.7-.467-5.217-.383-7.55.25a13.854 13.854 0 00-6.15 3.4c-1.767 1.667-3.15 3.85-4.15 6.55-1 2.7-1.5 5.917-1.5 9.65 0 3.7.5 6.9 1.5 9.6 1.033 2.7 2.433 4.883 4.2 6.55a14.92 14.92 0 006.2 3.4c2.333.6 4.817.683 7.45.25zm8.1 0c2.633.433 5.117.35 7.45-.25a14.46 14.46 0 006.2-3.35c1.8-1.667 3.2-3.85 4.2-6.55 1-2.7 1.5-5.917 1.5-9.65 0-3.767-.5-7-1.5-9.7-.967-2.7-2.333-4.883-4.1-6.55a13.845 13.845 0 00-6.2-3.4c-2.333-.6-4.85-.667-7.55-.2v39.65zm62.345 8.65c-5.067 0-9.334-1.25-12.8-3.75-3.467-2.533-6.1-5.95-7.9-10.25-1.767-4.333-2.65-9.183-2.65-14.55 0-5.433.883-10.3 2.65-14.6 1.8-4.3 4.433-7.683 7.9-10.15 3.5-2.467 7.783-3.7 12.85-3.7 5 0 9.3 1.25 12.9 3.75 3.633 2.467 6.416 5.85 8.35 10.15 1.933 4.3 2.9 9.15 2.9 14.55s-.967 10.25-2.9 14.55c-1.934 4.3-4.717 7.717-8.35 10.25-3.6 2.5-7.917 3.75-12.95 3.75zM78.095 312v-78h7.95v39.75h1V312h-8.95zm23.75-30.65c3.566 0 6.516-.9 8.85-2.7 2.333-1.8 4.083-4.233 5.25-7.3 1.166-3.1 1.75-6.567 1.75-10.4 0-3.8-.584-7.233-1.75-10.3-1.134-3.067-2.9-5.5-5.3-7.3-2.367-1.8-5.384-2.7-9.05-2.7-3.5 0-6.4.867-8.7 2.6-2.3 1.7-4.017 4.083-5.15 7.15-1.134 3.033-1.7 6.55-1.7 10.55 0 3.933.55 7.45 1.65 10.55 1.133 3.067 2.866 5.483 5.2 7.25 2.333 1.733 5.316 2.6 8.95 2.6zM141.652 312l10.45-28.4.15 8.4-23.6-58h9.35l18.5 46.65h-3.2l17.35-46.65h9.05l-29.4 78h-8.65zm44.259-24l.05-54h9v26l22.65-26h11.55l-23.85 27 26.65 27h-12.45l-24.55-26v26h-9.05zm63.327 0v-45.9h-18.8V234h46.5v8.1h-18.801V288h-8.899zm57.188 1.5c-5.367 0-10-1.217-13.9-3.65-3.867-2.433-6.85-5.8-8.95-10.1-2.1-4.3-3.15-9.233-3.15-14.8 0-5.667 1.066-10.633 3.2-14.9 2.133-4.267 5.15-7.583 9.05-9.95 3.9-2.4 8.483-3.6 13.75-3.6 5.4 0 10.05 1.217 13.95 3.65 3.9 2.4 6.883 5.75 8.95 10.05 2.1 4.267 3.15 9.183 3.15 14.75 0 5.633-1.05 10.6-3.15 14.9-2.1 4.267-5.1 7.617-9 10.05-3.9 2.4-8.534 3.6-13.9 3.6zm0-8.45c5.6 0 9.766-1.867 12.5-5.6 2.733-3.733 4.1-8.567 4.1-14.5 0-6.1-1.384-10.95-4.15-14.55-2.767-3.633-6.917-5.45-12.45-5.45-3.767 0-6.867.85-9.3 2.55-2.434 1.7-4.25 4.05-5.45 7.05-1.2 3-1.8 6.467-1.8 10.4 0 6.067 1.4 10.933 4.2 14.6 2.8 3.667 6.916 5.5 12.35 5.5zm35.008 6.95v-54h23c1.367 0 2.834.083 4.4.25 1.6.133 3.05.383 4.35.75 2.9.767 5.284 2.35 7.15 4.75 1.9 2.367 2.85 5.367 2.85 9 0 2.033-.316 3.8-.95 5.3-.6 1.5-1.466 2.8-2.6 3.9-.5.5-1.05.95-1.65 1.35-.6.4-1.2.717-1.8.95 1.167.2 2.35.65 3.55 1.35a11.166 11.166 0 014.45 4.35c1.1 1.867 1.65 4.25 1.65 7.15 0 3.667-.883 6.7-2.65 9.1-1.766 2.367-4.2 4-7.3 4.9-1.3.367-2.733.617-4.3.75-1.566.1-3.083.15-4.55.15h-25.6zm9-7.25h16.1c.7 0 1.534-.067 2.5-.2 1-.133 1.884-.3 2.65-.5 1.734-.5 2.984-1.433 3.75-2.8.8-1.367 1.2-2.85 1.2-4.45 0-2.133-.6-3.867-1.8-5.2-1.166-1.333-2.716-2.167-4.65-2.5-.7-.2-1.466-.317-2.3-.35-.8-.033-1.516-.05-2.15-.05h-15.3v16.05zm0-23.4h13.4c.934 0 1.917-.05 2.95-.15 1.034-.133 1.934-.35 2.7-.65 1.534-.567 2.65-1.5 3.35-2.8.734-1.333 1.1-2.783 1.1-4.35 0-1.733-.4-3.25-1.2-4.55-.766-1.333-1.95-2.25-3.55-2.75-1.066-.4-2.266-.617-3.6-.65-1.3-.067-2.133-.1-2.5-.1h-12.65v16z" fill="#0D332F"/><path d="M793.547 6.32c1.873 0 3.703.545 5.286 1.577 5.475 3.568 18.61 12.127 22.102 14.387a662.983 662.983 0 0113.36-2.107c5.497-.81 10.939 1.544 14.324 6.082l.081.107c.67.9.157 2.204-.936 2.331-31.393 3.65-125.49 13.492-71.806 36.917v1.46c-22.291-8.242-27.764-15.517-23.743-21.767 1.923-2.989 6.019-5.744 11.485-8.258 8.711-4.006 20.903-7.401 33.333-10.16l-4.868-3.665h3.86l6.856 2.416c1.4-.289 2.796-.57 4.184-.841L787.927 6.32h5.62z" fill="#FF6D2A"/><path d="M784.433 89.697h-8.488V44.505c2.463-.755 5.28-1.5 8.488-2.226v47.418zm0-52.993c-2.88.816-5.74 1.705-8.488 2.657l.001-16.05h8.488l-.001 13.393z" fill="#FF6D2A"/></svg>