<svg width="19" height="19" viewBox="0 0 19 19" fill="none" xmlns="http://www.w3.org/2000/svg">
<path d="M15.75 0.25C17.1307 0.25 18.25 1.36929 18.25 2.75V15.75C18.25 17.1307 17.1307 18.25 15.75 18.25H2.75C1.36929 18.25 0.25 17.1307 0.25 15.75V2.75C0.25 1.36929 1.36929 0.25 2.75 0.25H15.75ZM13.5088 5.55762C13.2445 5.33562 12.8499 5.36951 12.6279 5.63379L7.69043 11.5117L5.85742 9.47559C5.62653 9.21904 5.23118 9.19787 4.97461 9.42871C4.71826 9.65963 4.69694 10.055 4.92773 10.3115L7.24219 12.8828C7.36319 13.0171 7.537 13.0929 7.71777 13.0898C7.89846 13.0867 8.06925 13.0045 8.18555 12.8662L13.585 6.43848C13.8069 6.17424 13.7729 5.77966 13.5088 5.55762Z" fill="#0D332F"/>
</svg>
