<svg width="24" height="24" viewBox="0 0 24 24" fill="none" xmlns="http://www.w3.org/2000/svg">
<path d="M10.5933 20.2722C10.5933 20.7189 10.4159 21.1478 10.1001 21.4636C9.78427 21.7795 9.35534 21.9568 8.90869 21.9568C8.46223 21.9567 8.03399 21.7793 7.71826 21.4636C7.40243 21.1478 7.2251 20.7189 7.2251 20.2722C7.22519 19.8257 7.40252 19.3975 7.71826 19.0818C8.03401 18.766 8.46217 18.5887 8.90869 18.5886C9.35534 18.5886 9.78427 18.766 10.1001 19.0818C10.4158 19.3975 10.5932 19.8258 10.5933 20.2722Z" fill="white" fill-opacity="0.5"/>
<path d="M20.0933 20.2722C20.0933 20.7189 19.9159 21.1478 19.6001 21.4636C19.2843 21.7795 18.8553 21.9568 18.4087 21.9568C17.9622 21.9567 17.534 21.7793 17.2183 21.4636C16.9024 21.1478 16.7251 20.7189 16.7251 20.2722C16.7252 19.8257 16.9025 19.3975 17.2183 19.0818C17.534 18.766 17.9622 18.5887 18.4087 18.5886C18.8553 18.5886 19.2843 18.766 19.6001 19.0818C19.9158 19.3975 20.0932 19.8258 20.0933 20.2722Z" fill="white" fill-opacity="0.5"/>
<path d="M5.4541 2.35254C5.76283 2.35254 6.02925 2.57033 6.08984 2.87305L6.84961 6.6709H21C21.193 6.6709 21.376 6.75656 21.499 6.90527C21.622 7.05397 21.6728 7.24988 21.6367 7.43945L20.2549 14.6855L20.2539 14.6904C20.1453 15.2371 19.8472 15.7276 19.4131 16.0771C18.982 16.4241 18.4437 16.6093 17.8906 16.6016L9.49609 16.6025V16.6016C8.94324 16.6092 8.40454 16.424 7.97363 16.0771C7.53997 15.7279 7.24252 15.2375 7.13379 14.6914L5.68457 7.45312C5.68362 7.44863 5.68348 7.44398 5.68262 7.43945L4.92383 3.64746H2C1.64227 3.64746 1.35254 3.35773 1.35254 3C1.35254 2.64227 1.64227 2.35254 2 2.35254H5.4541ZM8.4043 14.4365V14.4375C8.45364 14.6859 8.58888 14.9095 8.78613 15.0684C8.98349 15.2272 9.23106 15.3115 9.48438 15.3066H17.9033L17.998 15.3047C18.2176 15.2896 18.428 15.2073 18.6006 15.0684C18.7979 14.9095 18.9331 14.686 18.9824 14.4375L20.2168 7.96582H7.10938L8.4043 14.4365Z" fill="white" fill-opacity="0.5"/>
</svg>
