<svg width="112" height="112" viewBox="0 0 112 112" fill="none" xmlns="http://www.w3.org/2000/svg">
<path d="M1.59961 46.2471C1.59961 42.8073 4.39037 40.0188 7.83294 40.0188H104.166C107.609 40.0188 110.4 42.8073 110.4 46.2471C110.4 49.6869 107.609 52.4754 104.166 52.4754H7.83294C4.39036 52.4754 1.59961 49.6869 1.59961 46.2471Z" fill="#E0E3DE"/>
<path d="M41.0205 9.21362C42.2275 7.77633 44.3721 7.58885 45.8105 8.79489C47.249 10.0009 47.4366 12.1438 46.2296 13.5811L18.5469 46.5455C17.3399 47.9827 15.1953 48.1702 13.7569 46.9642C12.3184 45.7582 12.1308 43.6153 13.3378 42.178L41.0205 9.21362Z" fill="#E0E3DE"/>
<path d="M65.9006 13.5831C64.6935 12.1458 64.8812 10.003 66.3196 8.79697C67.7581 7.59093 69.9026 7.77841 71.1096 9.2157L98.7924 42.1801C99.9994 43.6174 99.8118 45.7602 98.3733 46.9663C96.9348 48.1723 94.7903 47.9848 93.5833 46.5475L65.9006 13.5831Z" fill="#E0E3DE"/>
<path d="M103.6 59.2678L91.6445 99.425C90.8366 102.138 88.3418 103.998 85.5107 103.998H26.2637C23.4047 103.998 20.8921 102.102 20.1084 99.3527L8.68262 59.2678H103.6ZM56.043 65.3146C54.1652 65.3146 52.6426 66.8358 52.6426 68.7121V89.0959C52.6427 90.972 54.1653 92.4933 56.043 92.4933C57.9205 92.4931 59.4423 90.9719 59.4424 89.0959V68.7121C59.4424 66.836 57.9205 65.3149 56.043 65.3146ZM77.6709 65.5217C75.8218 65.1959 74.0587 66.43 73.7324 68.2775L70.1895 88.3517C69.8634 90.1994 71.0982 91.9613 72.9473 92.2873C74.7965 92.6131 76.5606 91.3792 76.8867 89.5314L80.4287 69.4572C80.7545 67.6096 79.52 65.8475 77.6709 65.5217ZM37.9482 68.2394C37.6222 66.3917 35.859 65.1578 34.0098 65.4836C32.1606 65.8095 30.9259 67.5714 31.252 69.4191L34.7939 89.4933C35.1201 91.341 36.8842 92.575 38.7334 92.2492C40.5826 91.9233 41.8173 90.1604 41.4912 88.3127L37.9482 68.2394Z" fill="#0D332F" fill-opacity="0.05"/>
</svg>
