<svg width="16" height="16" viewBox="0 0 16 16" fill="none" xmlns="http://www.w3.org/2000/svg">
<path d="M0.665039 1.99908H10.665V10.6658H0.665039V1.99908Z" stroke="#0D332F" stroke-width="1.2381" stroke-linecap="round" stroke-linejoin="round"/>
<path d="M10.665 5.33307H13.3317L15.3317 7.33307V10.6664H10.665V5.33307Z" stroke="#0D332F" stroke-width="1.2381" stroke-linecap="round" stroke-linejoin="round"/>
<path d="M3.66764 10.6651C3.22562 10.6651 2.80169 10.8407 2.48913 11.1533C2.17657 11.4658 2.00098 11.8897 2.00098 12.3318C2.00098 12.7738 2.17657 13.1977 2.48913 13.5103C2.80169 13.8228 3.22562 13.9984 3.66764 13.9984C4.10967 13.9984 4.53359 13.8228 4.84615 13.5103C5.15871 13.1977 5.33431 12.7738 5.33431 12.3318C5.33431 11.8897 5.15871 11.4658 4.84615 11.1533C4.53359 10.8407 4.10967 10.6651 3.66764 10.6651Z" stroke="#0D332F" stroke-width="1.2381" stroke-linecap="round" stroke-linejoin="round"/>
<path d="M12.3317 10.6651C11.8897 10.6651 11.4658 10.8407 11.1532 11.1533C10.8406 11.4658 10.665 11.8897 10.665 12.3318C10.665 12.7738 10.8406 13.1977 11.1532 13.5103C11.4658 13.8228 11.8897 13.9984 12.3317 13.9984C12.7737 13.9984 13.1977 13.8228 13.5102 13.5103C13.8228 13.1977 13.9984 12.7738 13.9984 12.3318C13.9984 11.8897 13.8228 11.4658 13.5102 11.1533C13.1977 10.8407 12.7737 10.6651 12.3317 10.6651Z" stroke="#0D332F" stroke-width="1.2381" stroke-linecap="round" stroke-linejoin="round"/>
</svg>
