<svg width="44" height="44" viewBox="0 0 44 44" fill="none" xmlns="http://www.w3.org/2000/svg">
<rect width="44" height="44" rx="22" fill="#0D332F"/>
<path d="M24.7423 32.9988H19.25L21.9963 18.9714L24.7423 32.9988Z" fill="#FF6D2A"/>
<path d="M23.5618 12.6756C25.053 11.2213 27.1495 10.7145 29.0707 11.152L23.9102 16.1845C24.8086 15.6404 25.8668 15.3262 26.9999 15.3262C29.1088 15.3262 30.9586 16.4135 32 18.0478H24.6987C25.7245 18.2824 26.697 18.7884 27.4954 19.567C28.9829 21.0178 29.5013 23.0572 29.0537 24.9264L22.0007 18.0478V18.0483L22 18.0476L21.9993 18.0478L14.9462 24.9264C14.4987 23.0572 15.0171 21.0178 16.5046 19.567C17.303 18.7884 18.2753 18.2824 19.3013 18.0478H12C13.0413 16.4135 14.8911 15.3262 16.9999 15.3262C18.1333 15.3262 19.1916 15.6405 20.09 16.1847L14.9297 11.152C16.8509 10.7145 18.9474 11.2213 20.4387 12.6756C21.2391 13.4564 21.7592 14.4074 22.0001 15.4106C22.2413 14.4074 22.7613 13.4564 23.5618 12.6756Z" fill="#39B54A"/>
</svg>
