<svg width="16" height="16" viewBox="0 0 16 16" fill="none" xmlns="http://www.w3.org/2000/svg">
<path d="M14.3807 0.730791C14.6352 0.610247 14.9383 0.662697 15.1375 0.861651C15.3367 1.06078 15.3898 1.36393 15.2694 1.61849L9.26935 14.2855C9.14881 14.54 8.88062 14.6912 8.60041 14.6634C8.32037 14.6355 8.08762 14.4345 8.01935 14.1615L6.78303 9.21614L1.83771 7.97981C1.56477 7.91137 1.36447 7.67881 1.33674 7.39876C1.30909 7.11863 1.46026 6.8513 1.71467 6.73079L14.3807 0.730791ZM3.9676 7.13802L7.49494 8.01985L7.58185 8.04817C7.77835 8.12715 7.92805 8.29623 7.98029 8.50521L8.86115 12.0306L13.2645 2.7347L3.9676 7.13802Z" fill="#0D332F"/>
</svg>
