<svg width="16" height="16" viewBox="0 0 16 16" fill="none" xmlns="http://www.w3.org/2000/svg">
<g clip-path="url(#clip0_197_2441)">
<path d="M14.0005 8.00034C14.0005 6.40904 13.3679 4.88239 12.2427 3.75717C11.1175 2.63213 9.59159 2.00042 8.00049 2.00034C6.40919 2.00034 4.88254 2.63195 3.75732 3.75717C2.63211 4.88239 2.00049 6.40904 2.00049 8.00034C2.00057 9.59144 2.63228 11.1174 3.75732 12.2425C4.88254 13.3677 6.40919 14.0003 8.00049 14.0003C9.59167 14.0002 11.1175 13.3677 12.2427 12.2425C13.3678 11.1174 14.0004 9.59152 14.0005 8.00034ZM7.3335 10.6664V8.00034C7.3335 7.63215 7.6323 7.33334 8.00049 7.33334C8.3685 7.33355 8.6665 7.63227 8.6665 8.00034V10.6664C8.6665 11.0344 8.3685 11.3331 8.00049 11.3333C7.6323 11.3333 7.3335 11.0345 7.3335 10.6664ZM8.00635 4.66635C8.37454 4.66635 8.67334 4.96515 8.67334 5.33334C8.67334 5.70153 8.37454 6.00034 8.00635 6.00034H8.00049C7.6323 6.00034 7.3335 5.70153 7.3335 5.33334C7.3335 4.96515 7.6323 4.66635 8.00049 4.66635H8.00635ZM15.3335 8.00034C15.3334 9.94514 14.5612 11.8107 13.186 13.1859C11.8108 14.5611 9.94529 15.3333 8.00049 15.3333C6.05572 15.3333 4.19018 14.5609 2.81494 13.1859C1.43975 11.8107 0.66659 9.94514 0.666504 8.00034C0.666504 6.05542 1.43967 4.19006 2.81494 2.81479C4.19021 1.43952 6.05557 0.666351 8.00049 0.666351C9.94529 0.666438 11.8108 1.4396 13.186 2.81479C14.5611 4.19002 15.3335 6.05557 15.3335 8.00034Z" fill="#0D332F" fill-opacity="0.4"/>
</g>
<defs>
<clipPath id="clip0_197_2441">
<rect width="16" height="16" fill="white"/>
</clipPath>
</defs>
</svg>
