<svg width="140" height="32" viewBox="0 0 140 32" fill="none" xmlns="http://www.w3.org/2000/svg">
<path d="M122.845 10.551C125.959 10.551 128.266 12.4565 128.266 15.723V24.5153H125.875V23.0999C124.958 24.2976 123.512 24.8692 121.733 24.8692C119.203 24.8692 116.868 23.4265 116.868 20.5138C116.868 17.6013 119.203 16.1585 121.733 16.1585C123.512 16.1585 124.958 16.7302 125.875 17.7374V15.8046C125.875 13.627 124.485 12.8104 122.845 12.8104C121.233 12.8104 119.843 13.627 119.843 15.2602H117.452C117.452 12.4565 119.759 10.551 122.845 10.551ZM122.428 22.8548C124.457 22.8548 125.875 21.8748 125.875 20.5138C125.875 19.0439 124.457 18.1457 122.428 18.1457C120.26 18.1457 119.287 19.1528 119.287 20.5138C119.287 21.8748 120.26 22.8548 122.428 22.8548Z" fill="#FFB12B"/>
<path d="M133.791 13.2343C134.764 11.5466 136.293 10.9477 137.989 10.9477V13.4248C135.904 13.3431 133.791 14.3775 133.791 17.5079V24.8031H131.373V11.1927H133.791V13.2343Z" fill="#FFB12B"/>
<path d="M116.24 2.21078C116.773 2.21078 117.294 2.35816 117.745 2.6372C119.304 3.60207 123.045 5.91635 124.04 6.52736C125.433 6.30456 126.726 6.11405 127.845 5.95757C129.41 5.73861 130.96 6.37496 131.924 7.60224L131.947 7.63113C132.138 7.87418 131.992 8.227 131.68 8.26141C122.74 9.24829 95.9411 11.9095 111.23 18.2435V18.638C104.882 16.4095 103.323 14.4426 104.468 12.7527C105.016 11.9444 106.183 11.1995 107.739 10.5198C110.22 9.43641 113.692 8.51837 117.232 7.77253L115.846 6.78145H116.945L118.898 7.43465C119.296 7.35672 119.694 7.28087 120.09 7.20734L114.639 2.21078H116.24Z" fill="#FFB12B"/>
<path d="M101.093 5.04761C104.047 5.04762 106.714 6.59604 107.279 9.55919C106.196 10.0677 105.335 10.6113 104.787 11.1891V10.7612C104.787 8.62892 103.276 7.50801 101.093 7.508C99.1342 7.508 97.6228 8.51955 97.6228 10.2418C97.6228 12.1828 99.3859 12.9482 101.541 13.741C104.479 14.8345 107.949 15.8734 107.949 19.5641C107.949 22.9266 104.927 24.8949 101.513 24.8949C97.7347 24.8949 94.5444 22.8172 94.5444 18.8805H97.1471C97.1471 21.2042 98.8822 22.4072 101.513 22.4072C103.752 22.4072 105.347 21.3136 105.347 19.5641C105.347 17.7324 103.444 16.9396 101.289 16.1468C98.3785 15.108 95.0482 14.0691 95.0482 10.2418C95.0482 6.90663 97.9867 5.04761 101.093 5.04761ZM104.854 12.766L104.787 12.8185V12.766H104.854Z" fill="#FFB12B"/>
<path d="M113.645 24.7534H111.227V12.5338C111.929 12.3296 112.731 12.1284 113.645 11.932V24.7534Z" fill="#FFB12B"/>
<path d="M113.645 10.4258C112.824 10.6465 112.01 10.8867 111.227 11.1443L111.227 6.80475H113.645L113.645 10.4258Z" fill="#FFB12B"/>
<path d="M88.7581 24.9383V5.88596H91.1753V24.9383H88.7581Z" fill="#FF6D2A"/>
<path d="M80.8344 10.551C83.9478 10.551 86.2551 12.4565 86.2551 15.723V24.5153H83.8644V23.0998C82.9471 24.2975 81.5016 24.8692 79.7224 24.8692C77.1927 24.8692 74.8577 23.4265 74.8577 20.5139C74.8577 17.6012 77.1927 16.1585 79.7224 16.1585C81.5016 16.1585 82.9471 16.7302 83.8644 17.7373V15.8046C83.8644 13.627 82.4745 12.8104 80.8344 12.8104C79.222 12.8104 77.8322 13.627 77.8322 15.2602H75.4415C75.4415 12.4565 77.7488 10.551 80.8344 10.551ZM80.4174 22.8549C82.4466 22.8549 83.8644 21.8749 83.8644 20.5139C83.8644 19.044 82.4466 18.1456 80.4174 18.1456C78.2491 18.1456 77.2762 19.1528 77.2762 20.5139C77.2762 21.8749 78.2491 22.8549 80.4174 22.8549Z" fill="#FF6D2A"/>
<path d="M59.1577 24.8951H53.4739L56.3159 10.2984L59.1577 24.8951Z" fill="#FF6D2A"/>
<path d="M14.8688 7.39542H9.64088L9.64087 24.893H7.22794V7.39542H2V5.04575H14.8688V7.39542Z" fill="#FF6D2A"/>
<path d="M17.3349 13.2046C18.3541 11.3675 19.9555 10.7157 21.7318 10.7157V13.412C19.5479 13.3231 17.3349 14.449 17.3349 17.8565V24.8923H14.8684V10.7157H17.3349V13.2046Z" fill="#FF6D2A"/>
<path d="M29.7069 10.7157C33.7177 10.7157 36.9594 13.8151 36.9594 17.804C36.9594 21.7928 33.7177 24.8923 29.7069 24.8923C25.696 24.8923 22.4819 21.7928 22.4819 17.804C22.4819 13.8151 25.696 10.7157 29.7069 10.7157ZM29.7069 13.0784C27.021 13.0784 24.8948 15.1275 24.8948 17.804L24.8964 17.9289C24.9614 20.5439 27.063 22.5294 29.7069 22.5296C32.4048 22.5296 34.5464 20.4687 34.5464 17.804C34.5464 15.1392 32.4048 13.0784 29.7069 13.0784Z" fill="#FF6D2A"/>
<path d="M61.7545 16.3392C61.6328 16.7706 61.568 17.2295 61.568 17.7081C61.568 20.4302 63.7084 22.5263 66.4604 22.5263C68.4064 22.5263 70.0463 21.4919 70.6579 19.9403H73.2155C72.4926 22.8529 69.7406 24.8673 66.4604 24.8673C62.2629 24.8673 59.1494 21.7369 59.1494 17.7081C59.1494 16.5466 59.4082 15.4596 59.8772 14.5009L61.7545 16.3392ZM66.4604 10.5491C69.7406 10.5491 72.4649 12.5635 73.2155 15.4488H70.6579C70.0186 13.8973 68.4064 12.8629 66.4604 12.8629C64.654 12.8629 63.1108 13.766 62.2638 15.1642L60.5128 13.4496C61.8124 11.6769 63.9411 10.5491 66.4604 10.5491Z" fill="#FF6D2A"/>
<path d="M46.2714 10.5491C48.6367 10.5491 50.7414 11.7224 52.0183 13.5565L50.2639 15.2746C49.4332 13.7948 47.8457 12.8357 45.9655 12.8357C43.1579 12.8357 41.0174 14.9317 41.0174 17.7081C41.0174 20.4847 43.1579 22.5808 45.9655 22.5808C48.7454 22.5808 50.8858 20.4847 50.8858 17.7081C50.8858 17.2818 50.835 16.8715 50.7396 16.4824L52.633 14.6281C53.063 15.5554 53.3042 16.5976 53.3042 17.7081C53.3042 21.7369 50.1353 24.8673 46.2714 24.8673C43.9084 24.8673 42.1293 23.8329 41.0174 22.1997V29.9576H38.5989V10.903H41.0174V13.2169C42.1293 11.5836 43.9084 10.5491 46.2714 10.5491Z" fill="#FF6D2A"/>
<path d="M57.9326 3.74293C59.4759 2.2296 61.6455 1.70223 63.6337 2.15747L58.2933 7.39419C59.2229 6.82802 60.3181 6.50107 61.4907 6.50107C63.6731 6.50107 65.5873 7.63257 66.6651 9.33321H59.1093C60.1708 9.5773 61.1772 10.1038 62.0034 10.9141C63.5428 12.4237 64.0793 14.5459 63.6161 16.491L56.3171 9.33321V9.33367L56.3164 9.33297L56.3157 9.33321L49.0167 16.491C48.5536 14.5459 49.0901 12.4237 50.6295 10.9141C51.4557 10.1038 52.4619 9.5773 53.5236 9.33321H45.9678C47.0454 7.63257 48.9596 6.50107 51.142 6.50107C52.315 6.50107 53.4101 6.82814 54.3399 7.39441L48.9996 2.15747C50.9878 1.70223 53.1574 2.2296 54.7007 3.74293C55.529 4.55538 56.0672 5.54498 56.3166 6.58889C56.5661 5.54498 57.1043 4.55538 57.9326 3.74293Z" fill="#39B54A"/>
</svg>
