<svg width="16" height="16" viewBox="0 0 16 16" fill="none" xmlns="http://www.w3.org/2000/svg">
<path d="M8.36085 15.888C8.14252 16.0373 7.85748 16.0373 7.63915 15.888L8 15.3334L8.36085 15.888ZM13.1994 6.66673C13.1994 5.2523 12.6522 3.89555 11.677 2.89539C10.7019 1.89524 9.37906 1.33393 8 1.33393C6.62094 1.33393 5.29812 1.89524 4.32298 2.89539C3.34784 3.89555 2.80057 5.25229 2.80057 6.66673C2.80057 8.73202 4.11082 10.7362 5.54739 12.2915C6.25223 13.0546 6.95903 13.6795 7.49063 14.1137C7.68812 14.275 7.86171 14.4083 8 14.5131C8.13829 14.4083 8.31188 14.275 8.50937 14.1137C9.04097 13.6795 9.74777 13.0546 10.4526 12.2915C11.8892 10.7362 13.1994 8.73202 13.1994 6.66673ZM14.5 6.66673C14.5 9.26785 12.8854 11.5972 11.3971 13.2085C10.6397 14.0285 9.8838 14.6951 9.31866 15.1566C9.03568 15.3877 8.79937 15.5689 8.6322 15.6927C8.5486 15.7547 8.48223 15.8025 8.43606 15.8353C8.41303 15.8517 8.39444 15.8636 8.38179 15.8724C8.37566 15.8767 8.37107 15.8807 8.36751 15.8832C8.36575 15.8844 8.36384 15.8853 8.36275 15.8861L8.3618 15.8871H8.36085L8 15.3334L7.63915 15.8871L7.63725 15.8861C7.63616 15.8853 7.63425 15.8844 7.63249 15.8832C7.62893 15.8807 7.62434 15.8767 7.61821 15.8724C7.60556 15.8636 7.58697 15.8517 7.56394 15.8353C7.51777 15.8025 7.4514 15.7547 7.3678 15.6927C7.20063 15.5689 6.96432 15.3877 6.68134 15.1566C6.1162 14.6951 5.36033 14.0285 4.6029 13.2085C3.11464 11.5972 1.5 9.26785 1.5 6.66673C1.5 4.89869 2.18528 3.20324 3.4042 1.95305C4.62313 0.702855 6.27618 4.73515e-08 8 0C9.72382 0 11.3769 0.702855 12.5958 1.95305C13.8147 3.20324 14.5 4.89869 14.5 6.66673Z" fill="#0D332F"/>
<path d="M9.33594 6.66669C9.33594 6.31306 9.19536 5.97435 8.94531 5.7243C8.69526 5.47426 8.35655 5.33368 8.00293 5.33368C7.64931 5.33368 7.3106 5.47426 7.06055 5.7243C6.8105 5.97435 6.66992 6.31306 6.66992 6.66669C6.66992 7.02031 6.8105 7.35902 7.06055 7.60907C7.3106 7.85912 7.64931 7.99969 8.00293 7.99969C8.35655 7.99969 8.69526 7.85912 8.94531 7.60907C9.19536 7.35902 9.33594 7.02031 9.33594 6.66669ZM10.6699 6.66669C10.6699 7.37393 10.3888 8.05233 9.88867 8.55243C9.38857 9.05253 8.71017 9.33368 8.00293 9.33368C7.29569 9.33368 6.61728 9.05253 6.11719 8.55243C5.61709 8.05233 5.33594 7.37393 5.33594 6.66669C5.33594 5.95944 5.61709 5.28104 6.11719 4.78094C6.61728 4.28085 7.29569 3.99969 8.00293 3.99969C8.71017 3.99969 9.38857 4.28085 9.88867 4.78094C10.3888 5.28104 10.6699 5.95944 10.6699 6.66669Z" fill="#0D332F"/>
</svg>
