<svg width="16" height="16" viewBox="0 0 16 16" fill="none" xmlns="http://www.w3.org/2000/svg">
<path d="M8 1C8.341 1 8.67509 1.08913 8.9707 1.25488L8.97168 1.25391L13.5225 3.79004L13.5254 3.79102C13.769 3.92828 13.9777 4.11606 14.1396 4.33887C14.1757 4.37526 14.2092 4.41516 14.2363 4.46094C14.2601 4.50097 14.278 4.54265 14.292 4.58496C14.428 4.84897 14.4997 5.14106 14.5 5.4375V10.5117C14.4996 10.845 14.4092 11.1724 14.2383 11.4609C14.0673 11.7495 13.8212 11.9895 13.5254 12.1562L13.5225 12.1582L8.97363 14.6924L8.97461 14.6934C8.76616 14.8107 8.53785 14.8878 8.30176 14.9238C8.2112 14.9705 8.1095 15 8 15C7.89019 15 7.78801 14.9708 7.69727 14.9238C7.46151 14.8878 7.23356 14.8106 7.02539 14.6934V14.6924L2.47754 12.1582L2.47461 12.1562C2.1788 11.9895 1.93271 11.7495 1.76172 11.4609C1.59084 11.1724 1.50045 10.845 1.5 10.5117V5.4375C1.50031 5.14121 1.57118 4.84887 1.70703 4.58496C1.72095 4.54268 1.73901 4.50094 1.7627 4.46094C1.79013 4.41469 1.82385 4.37359 1.86035 4.33691C2.02217 4.11467 2.23146 3.92802 2.47461 3.79102L2.47754 3.79004L7.02832 1.25391V1.25488C7.32411 1.08887 7.65872 1 8 1ZM2.80078 10.5098L2.80664 10.5928C2.81782 10.6748 2.84502 10.7541 2.8877 10.8262C2.94413 10.9214 3.02478 11.0011 3.12207 11.0566L7.34961 13.4131V8.3457L2.80078 5.77832V10.5098ZM8.65039 8.3457V13.4131L12.8779 11.0566C12.9752 11.0011 13.0559 10.9214 13.1123 10.8262C13.1691 10.7302 13.1989 10.6215 13.1992 10.5107V5.77832L8.65039 8.3457ZM8 2.26855C7.88612 2.26855 7.77445 2.29807 7.67578 2.35352L7.67285 2.35547L3.47363 4.69336L8 7.24805L12.5254 4.69336L8.32715 2.35547L8.32422 2.35352C8.22555 2.29807 8.11388 2.26855 8 2.26855Z" fill="#0D332F"/>
</svg>
