<svg width="16" height="16" viewBox="0 0 16 16" fill="none" xmlns="http://www.w3.org/2000/svg">
<path d="M4.83617 1V1.00094C5.29957 0.997887 5.74863 1.16216 6.10009 1.46385C6.40877 1.72893 6.62396 2.0839 6.71659 2.47666L6.74844 2.6478L6.74938 2.65341C6.82398 3.21797 6.96232 3.77233 7.16163 4.30589C7.2907 4.64862 7.31871 5.02138 7.24221 5.37948C7.16569 5.7376 6.98766 6.06646 6.72971 6.32683L6.72783 6.32963L6.26967 6.786C7.02167 7.96367 8.02252 8.96239 9.20227 9.71314L9.66043 9.25677L9.66324 9.2549C9.92409 8.99742 10.2536 8.81973 10.6123 8.74335C10.9703 8.66717 11.3424 8.69478 11.6851 8.82284H11.6861C12.0874 8.97231 12.5006 9.08732 12.9209 9.16699L13.3435 9.23526L13.3491 9.23619C13.8152 9.30182 14.2413 9.53613 14.5456 9.89456C14.8461 10.2488 15.0067 10.6998 14.9991 11.1636L15 13.077L14.9897 13.2762C14.9697 13.4742 14.919 13.6682 14.8388 13.8513C14.7318 14.0957 14.5748 14.3154 14.3779 14.4957C14.181 14.6759 13.9488 14.8133 13.6958 14.8987C13.4427 14.9842 13.1739 15.0163 12.9078 14.9923L12.8966 14.9913V14.9904C10.829 14.7662 8.84287 14.0615 7.09792 12.9321V12.9311C5.47702 11.902 4.10194 10.5306 3.07099 8.91262C1.93551 7.16301 1.22935 5.17059 1.0088 3.09762L1.00786 3.08827C0.983901 2.82359 1.01475 2.55646 1.09968 2.30459C1.1847 2.05263 1.32206 1.82107 1.50163 1.6247C1.68123 1.42833 1.89975 1.27109 2.14343 1.16366C2.38695 1.05631 2.65018 1.0003 2.91639 1H4.83617ZM2.78616 2.29149C2.74314 2.30059 2.70106 2.3139 2.66061 2.33171C2.57939 2.36752 2.50592 2.41962 2.44605 2.48508C2.38619 2.55054 2.34042 2.62833 2.31207 2.71233C2.28415 2.79532 2.27363 2.88323 2.28115 2.97044C2.46885 4.72439 3.042 6.41386 3.95733 7.91945L4.14471 8.21871L4.14846 8.22338C5.02193 9.59533 6.16864 10.772 7.51673 11.6798L7.78844 11.8575L7.79406 11.8603C9.36865 12.8795 11.1604 13.5157 13.0259 13.7195C13.1136 13.727 13.202 13.7177 13.2854 13.6896C13.3698 13.6611 13.4475 13.615 13.5131 13.5549C13.5787 13.4948 13.6311 13.4212 13.6667 13.3398C13.7023 13.2584 13.7205 13.1705 13.7202 13.0817V11.1486C13.724 10.9921 13.6707 10.8389 13.5693 10.7194C13.4679 10.6 13.3255 10.5224 13.1702 10.5006V10.4987C12.5105 10.4114 11.8627 10.2512 11.2392 10.0189H11.2373C11.123 9.97608 10.9988 9.96646 10.8794 9.99182C10.7609 10.017 10.6511 10.0747 10.5646 10.1592L9.75318 10.971C9.54961 11.1741 9.23516 11.2158 8.9849 11.0738C7.28352 10.1082 5.8748 8.70211 4.90737 7.0039C4.76515 6.75411 4.80692 6.44023 5.01044 6.23705L5.82276 5.42624C5.9074 5.33985 5.96614 5.23118 5.9914 5.11295C6.01681 4.99373 6.00718 4.86982 5.96423 4.75571V4.75384C5.73144 4.13113 5.56916 3.48436 5.48171 2.82548C5.45986 2.67254 5.38351 2.53259 5.26622 2.43177C5.14859 2.3308 4.99785 2.27599 4.84273 2.27747H2.91827L2.78616 2.29149Z" fill="#0D332F"/>
</svg>
