<svg width="16" height="16" viewBox="0 0 16 16" fill="none" xmlns="http://www.w3.org/2000/svg">
<path d="M11.8855 14.3092H4.53323C4.32437 14.3092 2.76673 11.636 1.7507 9.83411C1.58472 9.53976 1.79835 9.17749 2.13627 9.17749H14.3817C14.7034 9.17749 14.9131 9.50596 14.7663 9.79214C14.1788 10.9379 13.0533 12.9427 12.2442 14.1227C12.1631 14.2409 12.0288 14.3092 11.8855 14.3092Z" stroke="#0D332F"/>
<path d="M12.3282 6.67006L5.1303 8.1687C4.92583 8.21128 2.856 5.91171 1.494 4.35471C1.27152 4.10037 1.40681 3.70216 1.73764 3.63328L13.726 1.13724C14.0409 1.07168 14.3132 1.3505 14.2278 1.66059C13.8861 2.90204 13.193 5.09421 12.6413 6.41434C12.586 6.54659 12.4685 6.64085 12.3282 6.67006Z" stroke="#0D332F"/>
</svg>
