<svg width="16" height="16" viewBox="0 0 16 16" fill="none" xmlns="http://www.w3.org/2000/svg">
<path d="M1 3.29401C1 2.93502 1.28523 2.64368 1.63669 2.64368C1.98816 2.64368 2.27339 2.93502 2.27339 3.29401V6.54379H5.45499C5.80645 6.54379 6.09168 6.83513 6.09168 7.19413C6.09168 7.55313 5.80645 7.84447 5.45499 7.84447H1.63669C1.28523 7.84447 1 7.55313 1 7.19413V3.29401Z" fill="white"/>
<path d="M7.74837 2.06345C9.11452 1.86712 10.5065 2.12921 11.714 2.81091C12.9214 3.49273 13.8796 4.55738 14.4434 5.84359C15.0073 7.12979 15.1467 8.56858 14.8406 9.94271C14.5344 11.3167 13.799 12.5517 12.7459 13.462C11.6927 14.3722 10.3785 14.9082 9.00125 14.9892C7.62392 15.0702 6.2578 14.6922 5.10931 13.9114C3.96077 13.1305 3.09186 11.9889 2.63339 10.6597C2.5168 10.3212 2.69072 9.95057 3.02211 9.83131C3.35355 9.71217 3.71636 9.88984 3.83313 10.2284C4.19988 11.2916 4.89537 12.2041 5.81405 12.8288C6.73285 13.4534 7.8257 13.7562 8.9276 13.6914C10.0295 13.6267 11.0811 13.198 11.9237 12.4698C12.7663 11.7415 13.3549 10.7535 13.5998 9.6542C13.8447 8.55491 13.733 7.40385 13.2819 6.37491C12.8308 5.34598 12.0646 4.49422 11.0987 3.94876C10.1327 3.4033 9.0185 3.19372 7.92549 3.35079C6.83267 3.50794 5.81949 4.0236 5.03846 4.82C5.03397 4.82458 5.02911 4.82889 5.02448 4.83333L2.07127 7.66796C1.81524 7.91335 1.41324 7.90056 1.17263 7.6394C0.931954 7.37778 0.944463 6.96638 1.20059 6.72055L4.15287 3.88591C5.12737 2.89826 6.38862 2.25891 7.74837 2.06345Z" fill="white"/>
</svg>
