<svg width="16" height="16" viewBox="0 0 16 16" fill="none" xmlns="http://www.w3.org/2000/svg">
<path d="M7.33105 1.33301C8.92244 1.33301 10.4489 1.96554 11.5742 3.09082C12.6993 4.21601 13.3319 5.74182 13.332 7.33301C13.332 8.70034 12.8628 10.018 12.0176 11.0762L14.4707 13.5293C14.7308 13.7898 14.731 14.2123 14.4707 14.4727C14.2104 14.733 13.7879 14.7327 13.5273 14.4727L11.0742 12.0195C10.016 12.8648 8.69839 13.334 7.33105 13.334C5.73986 13.3339 4.21405 12.7013 3.08887 11.5762C1.96359 10.4509 1.33105 8.92439 1.33105 7.33301C1.33114 5.74174 1.96366 4.21602 3.08887 3.09082C4.21407 1.96562 5.73979 1.33309 7.33105 1.33301ZM7.33105 2.66699C6.09358 2.66708 4.90726 3.15915 4.03223 4.03418C3.15719 4.90921 2.66513 6.09553 2.66504 7.33301C2.66504 8.5706 3.15712 9.7577 4.03223 10.6328C4.90724 11.5077 6.09366 11.9999 7.33105 12C8.55459 12 9.72747 11.5177 10.5996 10.6611C10.6089 10.6506 10.6169 10.6389 10.627 10.6289C10.637 10.6189 10.6487 10.6108 10.6592 10.6016C11.5157 9.72942 11.998 8.55655 11.998 7.33301C11.998 6.09561 11.5058 4.9092 10.6309 4.03418C9.75575 3.15907 8.56865 2.66699 7.33105 2.66699Z" fill="#0D332F" fill-opacity="0.4"/>
</svg>
