<svg width="17" height="16" viewBox="0 0 17 16" fill="none" xmlns="http://www.w3.org/2000/svg">
<path d="M13.0628 5.30333L13.6117 4.75443C13.825 4.54112 13.825 4.19527 13.6117 3.98207C13.3984 3.76877 13.0526 3.76877 12.8393 3.98207L12.2904 4.53098C11.3695 3.76364 10.2504 3.30008 9.0567 3.19156V2.09236H9.58467C9.88631 2.09236 10.1308 1.84776 10.1308 1.54613C10.1308 1.24449 9.88631 1 9.58467 1H7.43637C7.13474 1 6.89024 1.24449 6.89024 1.54613C6.89024 1.84776 7.13474 2.09236 7.43637 2.09236H7.96434V3.19156C4.97618 3.46329 2.59375 5.97357 2.59375 9.08318C2.59375 12.3533 5.24001 15 8.51057 15C11.7806 15 14.4273 12.3537 14.4273 9.08318C14.4273 7.68629 13.9462 6.36343 13.0628 5.30333ZM8.51047 13.9076C5.85033 13.9076 3.686 11.7434 3.686 9.08318C3.686 6.42303 5.85033 4.25882 8.51047 4.25882C11.1707 4.25882 13.3349 6.42303 13.3349 9.08318C13.3349 11.7434 11.1707 13.9076 8.51047 13.9076ZM11.0416 6.55217C11.2549 6.76547 11.2549 7.11133 11.0416 7.32452L8.8967 9.46941C8.6834 9.68271 8.33754 9.68271 8.12434 9.46941C7.91104 9.2561 7.91104 8.91025 8.12434 8.69705L10.2691 6.55217C10.4824 6.33887 10.8283 6.33887 11.0416 6.55217Z" fill="#0D332F"/>
</svg>
