<svg width="16" height="17" viewBox="0 0 16 17" fill="none" xmlns="http://www.w3.org/2000/svg">
<path d="M9.33203 1.16699C9.86239 1.16699 10.371 1.37796 10.7461 1.75293C11.1211 2.12793 11.3319 2.63668 11.332 3.16699V3.83301H14C14.3682 3.83301 14.667 4.13181 14.667 4.5C14.667 4.86819 14.3682 5.16699 14 5.16699H13.332V13.834C13.332 14.3644 13.1212 14.873 12.7461 15.248C12.371 15.6231 11.8625 15.834 11.332 15.834H4.66504C4.13472 15.8339 3.62597 15.623 3.25098 15.248C2.87601 14.873 2.66504 14.3643 2.66504 13.834V5.16699H2C1.63181 5.16699 1.33301 4.86819 1.33301 4.5C1.33301 4.13181 1.63181 3.83301 2 3.83301H4.66504V3.16699C4.66513 2.63668 4.87598 2.12793 5.25098 1.75293C5.62597 1.37793 6.13472 1.16708 6.66504 1.16699H9.33203ZM3.99902 5.16699V13.834C3.99902 14.0108 4.06931 14.1806 4.19434 14.3057C4.31925 14.4304 4.4885 14.5009 4.66504 14.501H11.332C11.5088 14.501 11.6787 14.4307 11.8037 14.3057C11.9287 14.1806 11.999 14.0108 11.999 13.834V5.16699H3.99902ZM6.66504 2.50098C6.48835 2.50106 6.31928 2.57134 6.19434 2.69629C6.06939 2.82124 5.99911 2.9903 5.99902 3.16699V3.83301H9.99902V3.16699C9.99894 2.99045 9.92846 2.82121 9.80371 2.69629C9.67869 2.57126 9.50884 2.50098 9.33203 2.50098H6.66504Z" fill="#0D332F" fill-opacity="0.4"/>
</svg>
