<svg width="16" height="16" viewBox="0 0 16 16" fill="none" xmlns="http://www.w3.org/2000/svg">
<path d="M12.6665 13.7078V12.4582C12.6665 11.9611 12.4555 11.4843 12.0806 11.1327C11.7055 10.7811 11.1969 10.5835 10.6665 10.5835H5.3335C4.80306 10.5835 4.29451 10.7811 3.91943 11.1327C3.54436 11.4843 3.3335 11.961 3.3335 12.4582V13.7078C3.3335 14.0529 3.03469 14.333 2.6665 14.333C2.29831 14.333 1.99951 14.0529 1.99951 13.7078V12.4582C1.99951 11.6295 2.35095 10.8344 2.97607 10.2484C3.6012 9.66244 4.44944 9.33301 5.3335 9.33301H10.6665C11.5506 9.33301 12.3988 9.66244 13.0239 10.2484C13.6489 10.8344 13.9995 11.6296 13.9995 12.4582V13.7078C13.9995 14.0528 13.7015 14.3328 13.3335 14.333C12.9653 14.333 12.6665 14.0529 12.6665 13.7078Z" fill="white"/>
<path d="M10.1004 4.50051C10.1004 3.94375 9.8788 3.40959 9.48521 3.01582C9.09148 2.62209 8.55732 2.40071 8.00051 2.40062C7.44358 2.40062 6.90963 2.62201 6.51582 3.01582C6.12201 3.40963 5.90062 3.94358 5.90062 4.50051C5.90071 5.05732 6.12209 5.59148 6.51582 5.98521C6.90959 6.3788 7.44375 6.60041 8.00051 6.60041C8.55732 6.60032 9.09148 6.37893 9.48521 5.98521C9.87893 5.59148 10.1003 5.05732 10.1004 4.50051ZM11.5 4.50051C11.4999 5.4286 11.1309 6.31839 10.4747 6.97466C9.81839 7.63092 8.9286 7.99991 8.00051 8C7.0723 8 6.18169 7.631 5.52534 6.97466C4.86918 6.31841 4.50009 5.42852 4.5 4.50051C4.5 3.5723 4.869 2.68169 5.52534 2.02534C6.18169 1.369 7.0723 1 8.00051 1C8.92852 1.00009 9.81841 1.36918 10.4747 2.02534C11.131 2.68169 11.5 3.5723 11.5 4.50051Z" fill="white"/>
</svg>
