<svg width="16" height="16" viewBox="0 0 16 16" fill="none" xmlns="http://www.w3.org/2000/svg">
<g clip-path="url(#clip0_388_8962)">
<path d="M1 3.33321L3.33321 4.11095M3.33321 4.11095L1 11.1106C1.67329 11.6154 2.4921 11.8882 3.3336 11.8882C4.1751 11.8882 4.99392 11.6154 5.6672 11.1106L3.33321 4.11095ZM3.33321 4.11095L5.66643 11.1106M3.33321 4.11095L7.99964 2.55548M7.99964 2.55548L12.6661 4.11095M7.99964 2.55548V1M7.99964 2.55548V14.9993M12.6661 4.11095L14.9993 3.33321M12.6661 4.11095L10.3329 11.1106C11.0061 11.6154 11.825 11.8882 12.6665 11.8882C13.508 11.8882 14.3268 11.6154 15.0001 11.1106L12.6661 4.11095ZM7.99964 14.9993H5.66643M7.99964 14.9993H10.3329" stroke="#0D332F" stroke-width="1.3" stroke-linecap="round" stroke-linejoin="round"/>
</g>
<defs>
<clipPath id="clip0_388_8962">
<rect width="16" height="16" fill="white"/>
</clipPath>
</defs>
</svg>
