<svg width="20" height="20" viewBox="0 0 20 20" fill="none" xmlns="http://www.w3.org/2000/svg">
<path fill-rule="evenodd" clip-rule="evenodd" d="M16.2 3.79337C15.3911 2.984 14.4301 2.34262 13.3724 1.90612C12.3146 1.46963 11.1809 1.24666 10.0367 1.25004C5.23417 1.25004 1.325 5.14004 1.32333 9.9217C1.32124 11.4444 1.72264 12.9404 2.48667 14.2575L1.25 18.75L5.86917 17.5442C7.14777 18.237 8.5791 18.5996 10.0333 18.5992H10.0367C14.8383 18.5992 18.7475 14.7084 18.75 9.9267C18.7528 8.78637 18.5288 7.65687 18.091 6.60391C17.6533 5.55096 17.0104 4.59558 16.2 3.79337ZM10.0367 17.135H10.0333C8.73708 17.1356 7.46434 16.7889 6.3475 16.1309L6.08333 15.9742L3.34167 16.69L4.07417 14.03L3.90167 13.7567C3.17676 12.6091 2.79269 11.2791 2.79417 9.9217C2.79417 5.94837 6.04417 2.71504 10.0392 2.71504C11.9557 2.7115 13.7951 3.46937 15.1528 4.82195C16.5105 6.17454 17.2754 8.01105 17.2792 9.92754C17.2775 13.9017 14.0292 17.1359 10.0375 17.1359L10.0367 17.135ZM14.0092 11.7375C13.7917 11.6292 12.72 11.1042 12.5217 11.0317C12.3233 10.96 12.1767 10.9234 12.0317 11.14C11.8867 11.3575 11.4692 11.8442 11.3425 11.99C11.215 12.1367 11.0883 12.1525 10.8708 12.0442C10.6533 11.9359 9.95083 11.7075 9.11917 10.9692C8.4725 10.3942 8.03583 9.68504 7.90833 9.46837C7.78167 9.25171 7.895 9.13337 8.00417 9.02587C8.10167 8.92837 8.22083 8.77254 8.33083 8.64587C8.43917 8.5192 8.47583 8.4292 8.5475 8.2842C8.62 8.14004 8.58417 8.01337 8.53083 7.90504C8.47583 7.7967 8.04 6.73004 7.85917 6.2967C7.68167 5.87337 7.5025 5.93087 7.36917 5.9242C7.2425 5.91837 7.09583 5.91587 6.95167 5.91587C6.84137 5.91874 6.73285 5.94436 6.63291 5.9911C6.53296 6.03785 6.44374 6.10472 6.37083 6.18754C6.17083 6.4042 5.60917 6.9292 5.60917 7.99587C5.60917 9.06087 6.39 10.0925 6.49833 10.2375C6.60583 10.3817 8.03333 12.57 10.2175 13.5084C10.6225 13.6825 11.0375 13.835 11.4592 13.965C11.98 14.13 12.455 14.1067 12.83 14.0509C13.2483 13.9884 14.1183 13.5259 14.3 13.02C14.4808 12.5142 14.4808 12.0809 14.4267 11.99C14.3725 11.9 14.2267 11.845 14.0092 11.7375Z" fill="white"/>
</svg>
