<svg width="24" height="24" fill="none" xmlns="http://www.w3.org/2000/svg"><path d="M10.593 20.272a1.685 1.685 0 11-3.37 0 1.685 1.685 0 013.37 0zm9.5 0a1.685 1.685 0 11-3.37 0 1.685 1.685 0 013.37 0zM5.454 2.353c.309 0 .575.217.636.52l.76 3.798H21a.647.647 0 01.637.768l-1.382 7.246-.001.005a2.375 2.375 0 01-2.363 1.912H9.496a2.376 2.376 0 01-2.362-1.91l-1.45-7.239-.001-.014-.76-3.792H2a.647.647 0 110-1.294h3.454zm2.95 12.084a1.081 1.081 0 001.08.87h8.42l.094-.002a1.08 1.08 0 00.984-.867l1.235-6.472H7.109l1.295 6.47z" fill="#fff" fill-opacity=".5"/></svg>