<svg width="112" height="112" fill="none" xmlns="http://www.w3.org/2000/svg"><path d="M1.6 46.247a6.23 6.23 0 016.233-6.228h96.333a6.231 6.231 0 016.234 6.228 6.231 6.231 0 01-6.234 6.228H7.833A6.23 6.23 0 011.6 46.247z" fill="#E0E3DE"/><path d="M41.02 9.214a3.402 3.402 0 014.79-.42 3.395 3.395 0 01.42 4.787L18.547 46.546a3.402 3.402 0 01-4.79.418 3.395 3.395 0 01-.42-4.786L41.02 9.214zm24.88 4.369a3.395 3.395 0 01.42-4.786 3.402 3.402 0 014.79.419L98.792 42.18a3.395 3.395 0 01-.419 4.786 3.402 3.402 0 01-4.79-.419L65.901 13.584z" fill="#E0E3DE"/><path d="M103.6 59.268L91.644 99.425a6.4 6.4 0 01-6.133 4.573H26.264a6.4 6.4 0 01-6.156-4.645L8.683 59.268H103.6zm-47.557 6.047a3.4 3.4 0 00-3.4 3.397v20.384a3.4 3.4 0 006.8 0V68.712a3.399 3.399 0 00-3.4-3.397zm21.628.207a3.4 3.4 0 00-3.939 2.755L70.19 88.353a3.4 3.4 0 006.697 1.18l3.543-20.075a3.398 3.398 0 00-2.758-3.935zm-39.723 2.717a3.4 3.4 0 00-6.696 1.18l3.542 20.074a3.4 3.4 0 006.697-1.18l-3.543-20.074z" fill="#0D332F" fill-opacity=".05"/></svg>