<svg width="44" height="44" fill="none" xmlns="http://www.w3.org/2000/svg"><rect width="44" height="44" rx="22" fill="#0D332F"/><path d="M24.742 32.999H19.25l2.746-14.028L24.742 33z" fill="#FF6D2A"/><path d="M23.562 12.676c1.491-1.455 3.587-1.962 5.509-1.524l-5.16 5.033a5.947 5.947 0 013.089-.86 5.915 5.915 0 015 2.722h-7.301a5.865 5.865 0 012.796 1.519 5.626 5.626 0 011.559 5.36L22 18.046v.001l-7.054 6.878a5.627 5.627 0 011.559-5.359 5.864 5.864 0 012.796-1.52H12a5.914 5.914 0 015-2.72c1.133 0 2.192.313 3.09.858l-5.16-5.033c1.92-.438 4.017.07 5.509 1.524.8.78 1.32 1.731 1.561 2.735a5.657 5.657 0 011.562-2.735z" fill="#39B54A"/></svg>