<svg width="140" height="32" fill="none" xmlns="http://www.w3.org/2000/svg"><path d="M122.845 10.551c3.114 0 5.421 1.905 5.421 5.172v8.792h-2.391V23.1c-.917 1.198-2.363 1.77-4.142 1.77-2.53 0-4.865-1.444-4.865-4.356 0-2.913 2.335-4.355 4.865-4.355 1.779 0 3.225.571 4.142 1.578v-1.932c0-2.178-1.39-2.995-3.03-2.995-1.612 0-3.002.817-3.002 2.45h-2.391c0-2.803 2.307-4.709 5.393-4.709zm-.417 12.304c2.029 0 3.447-.98 3.447-2.341 0-1.47-1.418-2.368-3.447-2.368-2.168 0-3.141 1.007-3.141 2.368 0 1.36.973 2.34 3.141 2.34zm11.363-9.621c.973-1.687 2.502-2.286 4.198-2.286v2.477c-2.085-.082-4.198.952-4.198 4.083v7.295h-2.418v-13.61h2.418v2.041z" fill="#FFB12B"/><path d="M116.24 2.21a2.86 2.86 0 011.505.427c1.559.965 5.3 3.28 6.295 3.89a207.67 207.67 0 013.805-.57 4.41 4.41 0 014.079 1.645l.023.03a.389.389 0 01-.267.63c-8.94.986-35.739 3.647-20.45 9.982v.394c-6.348-2.229-7.907-4.195-6.762-5.885.548-.809 1.715-1.553 3.271-2.233 2.481-1.084 5.953-2.002 9.493-2.747l-1.386-.992h1.099l1.953.654c.398-.078.796-.154 1.192-.228l-5.451-4.996h1.601z" fill="#FFB12B"/><path d="M101.093 5.048c2.954 0 5.621 1.548 6.186 4.511-1.083.509-1.944 1.052-2.492 1.63v-.428c0-2.132-1.511-3.253-3.694-3.253-1.959 0-3.47 1.012-3.47 2.734 0 1.94 1.763 2.706 3.918 3.499 2.938 1.094 6.408 2.132 6.408 5.823 0 3.363-3.022 5.33-6.436 5.33-3.778 0-6.969-2.077-6.969-6.013h2.603c0 2.323 1.735 3.526 4.366 3.526 2.239 0 3.834-1.093 3.834-2.843 0-1.832-1.903-2.624-4.058-3.417-2.91-1.039-6.24-2.078-6.24-5.905 0-3.335 2.938-5.194 6.044-5.194zm3.761 7.718l-.067.053v-.053h.067zm8.791 11.987h-2.418v-12.22a35.094 35.094 0 012.418-.601v12.821zm0-14.327c-.821.22-1.635.46-2.418.718v-4.34h2.418v3.622z" fill="#FFB12B"/><path d="M88.758 24.938V5.886h2.417v19.052h-2.417zm-7.924-14.387c3.114 0 5.421 1.905 5.421 5.172v8.792h-2.39V23.1c-.918 1.197-2.363 1.77-4.143 1.77-2.53 0-4.864-1.444-4.864-4.356 0-2.913 2.335-4.355 4.864-4.355 1.78 0 3.225.571 4.142 1.578v-1.932c0-2.178-1.39-2.995-3.03-2.995-1.612 0-3.002.817-3.002 2.45h-2.39c0-2.803 2.307-4.709 5.392-4.709zm-.417 12.304c2.03 0 3.447-.98 3.447-2.341 0-1.47-1.417-2.368-3.447-2.368-2.168 0-3.14 1.007-3.14 2.368 0 1.36.972 2.34 3.14 2.34zm-21.259 2.04h-5.684l2.842-14.597 2.842 14.597zm-44.289-17.5H9.64v17.498H7.228V7.395H2v-2.35h12.869v2.35zm2.466 5.81c1.02-1.838 2.62-2.49 4.397-2.49v2.697c-2.184-.089-4.397 1.037-4.397 4.444v7.036h-2.467V10.716h2.467v2.489zm12.372-2.489c4.01 0 7.252 3.1 7.252 7.088 0 3.989-3.241 7.088-7.252 7.088-4.011 0-7.225-3.1-7.225-7.088 0-3.989 3.214-7.088 7.225-7.088zm0 2.362c-2.686 0-4.812 2.05-4.812 4.726l.001.125c.065 2.615 2.167 4.6 4.81 4.6 2.699 0 4.84-2.06 4.84-4.725 0-2.665-2.141-4.726-4.84-4.726zm32.048 3.262c-.122.43-.187.89-.187 1.368 0 2.722 2.14 4.818 4.892 4.818 1.946 0 3.586-1.034 4.198-2.586h2.558c-.723 2.913-3.475 4.927-6.756 4.927-4.197 0-7.31-3.13-7.31-7.159a7.27 7.27 0 01.727-3.207l1.877 1.838zm4.705-5.79c3.28 0 6.005 2.013 6.756 4.899h-2.558c-.64-1.552-2.252-2.586-4.198-2.586-1.806 0-3.35.903-4.196 2.301l-1.751-1.714c1.3-1.773 3.428-2.9 5.947-2.9zm-20.189 0a6.983 6.983 0 015.747 3.006l-1.754 1.719c-.83-1.48-2.418-2.44-4.299-2.44-2.807 0-4.948 2.097-4.948 4.873 0 2.777 2.14 4.873 4.948 4.873 2.78 0 4.92-2.096 4.92-4.873 0-.426-.05-.836-.145-1.226l1.893-1.854c.43.927.671 1.97.671 3.08 0 4.029-3.169 7.16-7.033 7.16-2.363 0-4.142-1.035-5.254-2.668v7.758H38.6V10.903h2.418v2.314c1.112-1.633 2.891-2.668 5.254-2.668z" fill="#FF6D2A"/><path d="M57.933 3.743c1.543-1.513 3.712-2.04 5.7-1.586l-5.34 5.237a6.128 6.128 0 013.198-.893 6.113 6.113 0 015.174 2.832H59.11a6.059 6.059 0 012.894 1.581 5.876 5.876 0 011.613 5.577l-7.299-7.158h-.001l-7.3 7.158a5.876 5.876 0 011.614-5.577 6.058 6.058 0 012.894-1.58h-7.556A6.112 6.112 0 0151.142 6.5c1.173 0 2.268.327 3.198.893L49 2.157c1.988-.455 4.157.073 5.7 1.586a5.894 5.894 0 011.617 2.846 5.895 5.895 0 011.616-2.846z" fill="#39B54A"/></svg>