<svg width="16" height="16" fill="none" xmlns="http://www.w3.org/2000/svg"><path d="M8.36 15.888a.637.637 0 01-.72 0l.36-.555.36.555zm4.84-9.221a5.403 5.403 0 00-1.523-3.772A5.135 5.135 0 008 1.334c-1.38 0-2.702.561-3.677 1.561a5.403 5.403 0 00-1.522 3.772c0 2.065 1.31 4.07 2.746 5.624A19.315 19.315 0 008 14.513a19.314 19.314 0 002.453-2.222c1.436-1.555 2.746-3.559 2.746-5.624zm1.3 0c0 2.6-1.615 4.93-3.103 6.542a20.604 20.604 0 01-2.96 2.626l-.055.037-.014.011-.005.003-.001.001H8.36L8 15.333l-.36.554h-.003c0-.002-.003-.003-.005-.004l-.014-.01c-.012-.01-.031-.021-.054-.038-.046-.033-.113-.08-.196-.142a20.608 20.608 0 01-2.765-2.484C3.115 11.597 1.5 9.268 1.5 6.667c0-1.768.685-3.464 1.904-4.714A6.418 6.418 0 018 0a6.42 6.42 0 014.596 1.953A6.754 6.754 0 0114.5 6.667z" fill="#0D332F"/><path d="M9.336 6.667a1.332 1.332 0 10-2.665 0 1.332 1.332 0 002.665 0zm1.334 0a2.667 2.667 0 11-5.334 0 2.667 2.667 0 015.334 0z" fill="#0D332F"/></svg>