<svg width="16" height="16" fill="none" xmlns="http://www.w3.org/2000/svg"><path d="M8 1c.341 0 .675.09.97.255l.002-.001 4.55 2.536.003.001c.244.137.453.325.615.548a.63.63 0 01.152.246c.136.264.208.556.208.853v5.074c0 .333-.09.66-.262.949a1.928 1.928 0 01-.713.695l-.002.002-4.55 2.534.002.001a1.98 1.98 0 01-.673.23A.656.656 0 018 15a.656.656 0 01-.303-.076 1.977 1.977 0 01-.672-.23v-.002l-4.547-2.534-.003-.002a1.928 1.928 0 01-.713-.695 1.867 1.867 0 01-.262-.95V5.439c0-.297.071-.59.207-.853a.627.627 0 01.153-.248c.162-.222.371-.409.615-.546l.003-.001 4.55-2.536C7.324 1.09 7.658 1 8 1zm-5.2 9.51l.007.083a.623.623 0 00.315.464l4.228 2.356V8.346L2.8 5.778v4.732zm5.85-2.164v5.067l4.228-2.356a.643.643 0 00.234-.23.622.622 0 00.087-.316V5.778L8.65 8.346zM8 2.269a.662.662 0 00-.324.085l-.003.001-4.2 2.338L8 7.248l4.525-2.555-4.198-2.338-.003-.001A.662.662 0 008 2.269z" fill="#0D332F"/></svg>