<svg width="16" height="16" fill="none" xmlns="http://www.w3.org/2000/svg"><path d="M4.836 1a1.921 1.921 0 011.88 1.477l.032.17.001.006c.075.565.213 1.12.413 1.653a1.913 1.913 0 01-.432 2.02l-.002.004-.458.456a9.583 9.583 0 002.932 2.927l.458-.456.003-.002a1.92 1.92 0 012.022-.432h.001c.401.15.815.264 1.235.344l.423.068.005.001A1.913 1.913 0 0115 11.163v1.915l-.01.2a1.912 1.912 0 01-1.294 1.622 1.924 1.924 0 01-.788.093h-.011v-.002a13.313 13.313 0 01-5.8-2.058 13.099 13.099 0 01-4.026-4.02 13.258 13.258 0 01-2.062-5.814l-.001-.01A1.913 1.913 0 012.916 1h1.92zm-2.05 1.291a.64.64 0 00-.505.68 11.987 11.987 0 001.676 4.948l.188.3.003.004a11.82 11.82 0 003.369 3.457l.271.178.006.002a12.032 12.032 0 005.232 1.86.641.641 0 00.487-.165.64.64 0 00.207-.473v-1.933a.64.64 0 00-.55-.648v-.002a8.858 8.858 0 01-1.93-.48h-.003a.64.64 0 00-.672.14l-.812.812a.64.64 0 01-.768.103 10.863 10.863 0 01-4.078-4.07.637.637 0 01.103-.767l.813-.81a.639.639 0 00.141-.671v-.002a8.822 8.822 0 01-.482-1.929.638.638 0 00-.64-.548H2.919l-.132.014z" fill="#0D332F"/></svg>