<svg width="16" height="16" fill="none" xmlns="http://www.w3.org/2000/svg"><path d="M1 3.294c0-.359.285-.65.637-.65.351 0 .636.291.636.65v3.25h3.182c.351 0 .637.291.637.65 0 .36-.286.65-.637.65H1.637A.644.644 0 011 7.194v-3.9z" fill="#fff"/><path d="M7.748 2.063a6.251 6.251 0 013.966.748 6.452 6.452 0 012.73 3.033 6.63 6.63 0 01.397 4.099 6.526 6.526 0 01-2.095 3.519A6.291 6.291 0 019 14.989a6.264 6.264 0 01-3.892-1.078 6.484 6.484 0 01-2.476-3.251.653.653 0 01.39-.829.632.632 0 01.81.397 5.186 5.186 0 001.981 2.6 5.012 5.012 0 003.114.863 5.033 5.033 0 002.996-1.221A5.22 5.22 0 0013.6 9.654c.245-1.1.133-2.25-.318-3.28a5.161 5.161 0 00-2.183-2.425 5.002 5.002 0 00-3.174-.598A5.052 5.052 0 005.038 4.82l-.014.013-2.953 2.835a.627.627 0 01-.898-.029.66.66 0 01.028-.918l2.952-2.835a6.315 6.315 0 013.595-1.823z" fill="#fff"/></svg>