<svg width="16" height="16" fill="none" xmlns="http://www.w3.org/2000/svg"><path d="M12.666 13.708v-1.25c0-.497-.21-.974-.585-1.325a2.07 2.07 0 00-1.415-.55H5.333a2.07 2.07 0 00-1.414.55 1.817 1.817 0 00-.586 1.325v1.25c0 .345-.298.625-.667.625-.368 0-.666-.28-.666-.625v-1.25c0-.829.351-1.624.976-2.21a3.451 3.451 0 012.357-.915h5.333c.885 0 1.733.33 2.358.915a3.03 3.03 0 01.976 2.21v1.25c0 .345-.299.625-.666.625-.369 0-.668-.28-.668-.625zM10.1 4.5a2.1 2.1 0 10-4.201.002A2.1 2.1 0 0010.1 4.5zm1.4 0a3.5 3.5 0 11-7-.001 3.5 3.5 0 017 .002z" fill="#fff"/></svg>