<svg width="16" height="16" fill="none" xmlns="http://www.w3.org/2000/svg"><g clip-path="url(#clip0_388_8962)"><path d="M1 3.333l2.333.778m0 0L1 11.11a3.89 3.89 0 004.667 0l-2.334-7zm0 0l2.333 7m-2.333-7L8 2.555m0 0l4.666 1.556M8 2.555V1m0 1.555V15m4.666-10.888L15 3.333m-2.333.778l-2.333 7a3.89 3.89 0 004.667 0l-2.334-7zM8 14.999H5.666M8 15h2.333" stroke="#0D332F" stroke-width="1.3" stroke-linecap="round" stroke-linejoin="round"/></g><defs><clipPath id="clip0_388_8962"><path fill="#fff" d="M0 0h16v16H0z"/></clipPath></defs></svg>