<svg width="20" height="20" fill="none" xmlns="http://www.w3.org/2000/svg"><path fill-rule="evenodd" clip-rule="evenodd" d="M16.2 3.793a8.678 8.678 0 00-6.163-2.543c-4.803 0-8.712 3.89-8.714 8.672a8.617 8.617 0 001.164 4.335L1.25 18.75l4.62-1.206a8.736 8.736 0 004.163 1.055h.004c4.801 0 8.71-3.89 8.713-8.672a8.6 8.6 0 00-2.55-6.134zm-6.163 13.342h-.004a7.254 7.254 0 01-3.685-1.004l-.265-.157-2.741.716.732-2.66-.172-.273a7.166 7.166 0 01-1.108-3.835c0-3.974 3.25-7.207 7.245-7.207a7.226 7.226 0 017.24 7.213c-.002 3.974-3.25 7.208-7.242 7.208v-.001zm3.972-5.398c-.217-.108-1.289-.633-1.487-.705-.199-.072-.345-.109-.49.108-.145.217-.563.704-.69.85-.127.147-.254.162-.471.054-.218-.108-.92-.337-1.752-1.075-.646-.575-1.083-1.284-1.21-1.5-.127-.217-.014-.336.095-.443.098-.098.217-.253.327-.38.108-.127.145-.217.216-.362.073-.144.037-.27-.016-.379-.055-.108-.491-1.175-.672-1.608-.177-.424-.356-.366-.49-.373a9.4 9.4 0 00-.417-.008.802.802 0 00-.581.272c-.2.216-.762.741-.762 1.808 0 1.065.781 2.096.89 2.242.107.144 1.534 2.332 3.718 3.27.405.175.82.327 1.242.457.521.165.996.142 1.371.086.418-.063 1.288-.525 1.47-1.031.18-.506.18-.94.127-1.03-.054-.09-.2-.145-.418-.252z" fill="#fff"/></svg>