<svg width="17" height="16" fill="none" xmlns="http://www.w3.org/2000/svg"><path d="M13.063 5.303l.549-.549a.546.546 0 10-.773-.772l-.549.549a5.86 5.86 0 00-3.233-1.34V2.093h.528a.546.546 0 000-1.092H7.436a.546.546 0 100 1.092h.528v1.1a5.914 5.914 0 00-5.37 5.891A5.914 5.914 0 008.51 15a5.914 5.914 0 005.916-5.917c0-1.397-.48-2.72-1.364-3.78zM8.51 13.908a4.83 4.83 0 01-4.824-4.825A4.83 4.83 0 018.51 4.26a4.83 4.83 0 014.825 4.824 4.83 4.83 0 01-4.825 4.825zm2.532-7.356a.546.546 0 010 .773L8.897 9.469a.546.546 0 11-.773-.772l2.145-2.145a.546.546 0 01.773 0z" fill="#0D332F"/></svg>