<svg width="862" height="316" viewBox="0 0 862 316" fill="none" xmlns="http://www.w3.org/2000/svg">
<path d="M36.6 89.5C29.4333 89.5 23.35 87.9167 18.35 84.75C13.35 81.5833 9.53333 77.1833 6.9 71.55C4.3 65.9167 3 59.4 3 52C3 44.6 4.3 38.0833 6.9 32.45C9.53333 26.8167 13.35 22.4167 18.35 19.25C23.35 16.0833 29.4333 14.5 36.6 14.5C43.8 14.5 49.9 16.0833 54.9 19.25C59.9 22.4167 63.7 26.8167 66.3 32.45C68.9 38.0833 70.2 44.6 70.2 52C70.2 59.4 68.9 65.9167 66.3 71.55C63.7 77.1833 59.9 81.5833 54.9 84.75C49.9 87.9167 43.8 89.5 36.6 89.5ZM36.6 81C41.9667 81.0333 46.4333 79.8333 50 77.4C53.6 74.9333 56.2833 71.5167 58.05 67.15C59.85 62.7833 60.75 57.7333 60.75 52C60.75 46.2333 59.85 41.1833 58.05 36.85C56.2833 32.5167 53.6 29.1333 50 26.7C46.4333 24.2667 41.9667 23.0333 36.6 23C31.2333 22.9667 26.7667 24.1667 23.2 26.6C19.6667 29.0333 17 32.4333 15.2 36.8C13.4 41.1667 12.4833 46.2333 12.45 52C12.4167 57.7333 13.3 62.7667 15.1 67.1C16.9 71.4333 19.5833 74.8333 23.15 77.3C26.75 79.7333 31.2333 80.9667 36.6 81Z" fill="#0D332F"/>
<path d="M92.5422 88V42.1H73.7422V34H120.242V42.1H101.442V88H92.5422Z" fill="#0D332F"/>
<path d="M127.657 88L127.707 34H136.707V60L159.357 34H170.907L147.057 61L173.707 88H161.257L136.707 62V88H127.657Z" fill="#0D332F"/>
<path d="M201.484 89.5C196.417 89.5 192.15 88.25 188.684 85.75C185.217 83.2167 182.584 79.8 180.784 75.5C179.017 71.1667 178.134 66.3167 178.134 60.95C178.134 55.5167 179.017 50.65 180.784 46.35C182.584 42.05 185.217 38.6667 188.684 36.2C192.184 33.7333 196.467 32.5 201.534 32.5C206.534 32.5 210.834 33.75 214.434 36.25C218.067 38.7167 220.85 42.1 222.784 46.4C224.717 50.7 225.684 55.55 225.684 60.95C225.684 66.35 224.717 71.2 222.784 75.5C220.85 79.8 218.067 83.2167 214.434 85.75C210.834 88.25 206.517 89.5 201.484 89.5ZM176.634 112V34H184.584V73.75H185.584V112H176.634ZM200.384 81.35C203.95 81.35 206.9 80.45 209.234 78.65C211.567 76.85 213.317 74.4167 214.484 71.35C215.65 68.25 216.234 64.7833 216.234 60.95C216.234 57.15 215.65 53.7167 214.484 50.65C213.35 47.5833 211.584 45.15 209.184 43.35C206.817 41.55 203.8 40.65 200.134 40.65C196.634 40.65 193.734 41.5167 191.434 43.25C189.134 44.95 187.417 47.3333 186.284 50.4C185.15 53.4333 184.584 56.95 184.584 60.95C184.584 64.8833 185.134 68.4 186.234 71.5C187.367 74.5667 189.1 76.9833 191.434 78.75C193.767 80.4833 196.75 81.35 200.384 81.35Z" fill="#0D332F"/>
<path d="M257.645 89.5C252.278 89.5 247.645 88.2833 243.745 85.85C239.878 83.4167 236.895 80.05 234.795 75.75C232.695 71.45 231.645 66.5167 231.645 60.95C231.645 55.2833 232.711 50.3167 234.845 46.05C236.978 41.7833 239.995 38.4667 243.895 36.1C247.795 33.7 252.378 32.5 257.645 32.5C263.045 32.5 267.695 33.7167 271.595 36.15C275.495 38.55 278.478 41.9 280.545 46.2C282.645 50.4667 283.695 55.3833 283.695 60.95C283.695 66.5833 282.645 71.55 280.545 75.85C278.445 80.1167 275.445 83.4667 271.545 85.9C267.645 88.3 263.011 89.5 257.645 89.5ZM257.645 81.05C263.245 81.05 267.411 79.1833 270.145 75.45C272.878 71.7167 274.245 66.8833 274.245 60.95C274.245 54.85 272.861 50 270.095 46.4C267.328 42.7667 263.178 40.95 257.645 40.95C253.878 40.95 250.778 41.8 248.345 43.5C245.911 45.2 244.095 47.55 242.895 50.55C241.695 53.55 241.095 57.0167 241.095 60.95C241.095 67.0167 242.495 71.8833 245.295 75.55C248.095 79.2167 252.211 81.05 257.645 81.05Z" fill="#0D332F"/>
<path d="M315.953 27.7C313.453 27.7 311.17 27.0833 309.103 25.85C307.036 24.6167 305.386 22.9833 304.153 20.95C302.92 18.8833 302.303 16.5833 302.303 14.05H309.503C309.503 15.8167 310.136 17.3333 311.403 18.6C312.67 19.8667 314.186 20.5 315.953 20.5C317.753 20.5 319.27 19.8667 320.503 18.6C321.77 17.3333 322.403 15.8167 322.403 14.05H329.603C329.603 16.5833 328.986 18.8833 327.753 20.95C326.553 22.9833 324.903 24.6167 322.803 25.85C320.736 27.0833 318.453 27.7 315.953 27.7ZM336.903 34V88H328.303V48.2L300.003 88H292.653V34H301.253V73.25L329.603 34H336.903Z" fill="#0D332F"/>
<path d="M363.206 88V42.1H344.406V34H390.906V42.1H372.106V88H363.206Z" fill="#0D332F"/>
<path d="M421.771 89.5C416.471 89.5 411.838 88.3333 407.871 86C403.938 83.6333 400.871 80.35 398.671 76.15C396.471 71.9167 395.371 66.9833 395.371 61.35C395.371 55.45 396.454 50.35 398.621 46.05C400.788 41.7167 403.804 38.3833 407.671 36.05C411.571 33.6833 416.138 32.5 421.371 32.5C426.804 32.5 431.421 33.75 435.221 36.25C439.054 38.75 441.921 42.3167 443.821 46.95C445.754 51.5833 446.588 57.1 446.321 63.5H437.321V60.3C437.221 53.6667 435.871 48.7167 433.271 45.45C430.671 42.15 426.804 40.5 421.671 40.5C416.171 40.5 411.988 42.2667 409.121 45.8C406.254 49.3333 404.821 54.4 404.821 61C404.821 67.3667 406.254 72.3 409.121 75.8C411.988 79.3 416.071 81.05 421.371 81.05C424.938 81.05 428.038 80.2333 430.671 78.6C433.304 76.9667 435.371 74.6167 436.871 71.55L445.421 74.5C443.321 79.2667 440.154 82.9667 435.921 85.6C431.721 88.2 427.004 89.5 421.771 89.5ZM401.821 63.5V56.35H441.721V63.5H401.821Z" fill="#0D332F"/>
<path d="M473.423 88V34H517.673V88H508.773V42.45H482.323V88H473.423Z" fill="#0D332F"/>
<path d="M524.676 88V80.35C526.676 80.7167 528.192 80.65 529.226 80.15C530.292 79.6167 531.076 78.7 531.576 77.4C532.109 76.0667 532.542 74.4 532.876 72.4C533.442 69.2333 533.926 65.7 534.326 61.8C534.759 57.9 535.142 53.6333 535.476 49C535.842 44.3333 536.176 39.3333 536.476 34H574.226V88H565.326V42.45H544.576C544.376 45.5167 544.126 48.6667 543.826 51.9C543.559 55.1333 543.276 58.2833 542.976 61.35C542.676 64.3833 542.342 67.2167 541.976 69.85C541.642 72.45 541.276 74.7 540.876 76.6C540.242 79.8667 539.359 82.4833 538.226 84.45C537.092 86.3833 535.459 87.6333 533.326 88.2C531.192 88.8 528.309 88.7333 524.676 88Z" fill="#0D332F"/>
<path d="M601.62 89.5C597.586 89.5 594.203 88.7667 591.47 87.3C588.77 85.8 586.72 83.8333 585.32 81.4C583.953 78.9667 583.27 76.3 583.27 73.4C583.27 70.5667 583.803 68.1167 584.87 66.05C585.969 63.95 587.503 62.2167 589.47 60.85C591.436 59.45 593.786 58.35 596.52 57.55C599.086 56.85 601.953 56.25 605.12 55.75C608.32 55.2167 611.553 54.7333 614.82 54.3C618.086 53.8667 621.136 53.45 623.97 53.05L620.77 54.9C620.87 50.1 619.903 46.55 617.87 44.25C615.87 41.95 612.403 40.8 607.47 40.8C604.203 40.8 601.336 41.55 598.87 43.05C596.436 44.5167 594.72 46.9167 593.72 50.25L585.27 47.7C586.57 42.9667 589.086 39.25 592.82 36.55C596.553 33.85 601.47 32.5 607.57 32.5C612.47 32.5 616.67 33.3833 620.17 35.15C623.703 36.8833 626.236 39.5167 627.77 43.05C628.536 44.7167 629.02 46.5333 629.22 48.5C629.42 50.4333 629.52 52.4667 629.52 54.6V88H621.62V75.05L623.47 76.25C621.436 80.6167 618.586 83.9167 614.92 86.15C611.286 88.3833 606.853 89.5 601.62 89.5ZM602.97 82.05C606.17 82.05 608.936 81.4833 611.27 80.35C613.636 79.1833 615.536 77.6667 616.97 75.8C618.403 73.9 619.336 71.8333 619.77 69.6C620.27 67.9333 620.536 66.0833 620.57 64.05C620.636 61.9833 620.67 60.4 620.67 59.3L623.77 60.65C620.87 61.05 618.02 61.4333 615.22 61.8C612.42 62.1667 609.77 62.5667 607.27 63C604.77 63.4 602.52 63.8833 600.52 64.45C599.053 64.9167 597.669 65.5167 596.37 66.25C595.103 66.9833 594.07 67.9333 593.27 69.1C592.503 70.2333 592.12 71.65 592.12 73.35C592.12 74.8167 592.486 76.2167 593.22 77.55C593.986 78.8833 595.153 79.9667 596.72 80.8C598.32 81.6333 600.403 82.05 602.97 82.05Z" fill="#0D332F"/>
<path d="M640.47 88V34H649.37V56.75H677.77V34H686.67V88H677.77V65.2H649.37V88H640.47Z" fill="#0D332F"/>
<path d="M722.076 89.5C716.776 89.5 712.142 88.3333 708.176 86C704.242 83.6333 701.176 80.35 698.976 76.15C696.776 71.9167 695.676 66.9833 695.676 61.35C695.676 55.45 696.759 50.35 698.926 46.05C701.092 41.7167 704.109 38.3833 707.976 36.05C711.876 33.6833 716.442 32.5 721.676 32.5C727.109 32.5 731.726 33.75 735.526 36.25C739.359 38.75 742.226 42.3167 744.126 46.95C746.059 51.5833 746.892 57.1 746.626 63.5H737.626V60.3C737.526 53.6667 736.176 48.7167 733.576 45.45C730.976 42.15 727.109 40.5 721.976 40.5C716.476 40.5 712.292 42.2667 709.426 45.8C706.559 49.3333 705.126 54.4 705.126 61C705.126 67.3667 706.559 72.3 709.426 75.8C712.292 79.3 716.376 81.05 721.676 81.05C725.242 81.05 728.342 80.2333 730.976 78.6C733.609 76.9667 735.676 74.6167 737.176 71.55L745.726 74.5C743.626 79.2667 740.459 82.9667 736.226 85.6C732.026 88.2 727.309 89.5 722.076 89.5ZM702.126 63.5V56.35H742.026V63.5H702.126Z" fill="#0D332F"/>
<path d="M817.316 112L827.766 83.6L827.916 92L804.316 34H813.666L832.166 80.65H828.966L846.316 34H855.366L825.966 112H817.316Z" fill="#0D332F"/>
<path d="M21.3 188V142.1H2.5V134H49V142.1H30.2V188H21.3Z" fill="#0D332F"/>
<path d="M81.2648 189.5C76.1982 189.5 71.9315 188.25 68.4648 185.75C64.9982 183.217 62.3648 179.8 60.5648 175.5C58.7982 171.167 57.9148 166.317 57.9148 160.95C57.9148 155.517 58.7982 150.65 60.5648 146.35C62.3648 142.05 64.9982 138.667 68.4648 136.2C71.9648 133.733 76.2482 132.5 81.3148 132.5C86.3148 132.5 90.6148 133.75 94.2148 136.25C97.8482 138.717 100.632 142.1 102.565 146.4C104.498 150.7 105.465 155.55 105.465 160.95C105.465 166.35 104.498 171.2 102.565 175.5C100.632 179.8 97.8482 183.217 94.2148 185.75C90.6148 188.25 86.2982 189.5 81.2648 189.5ZM56.4148 212V134H64.3648V173.75H65.3648V212H56.4148ZM80.1648 181.35C83.7315 181.35 86.6815 180.45 89.0148 178.65C91.3482 176.85 93.0982 174.417 94.2648 171.35C95.4315 168.25 96.0148 164.783 96.0148 160.95C96.0148 157.15 95.4315 153.717 94.2648 150.65C93.1315 147.583 91.3648 145.15 88.9648 143.35C86.5982 141.55 83.5815 140.65 79.9148 140.65C76.4148 140.65 73.5148 141.517 71.2148 143.25C68.9148 144.95 67.1982 147.333 66.0648 150.4C64.9315 153.433 64.3648 156.95 64.3648 160.95C64.3648 164.883 64.9148 168.4 66.0148 171.5C67.1482 174.567 68.8815 176.983 71.2148 178.75C73.5482 180.483 76.5315 181.35 80.1648 181.35Z" fill="#0D332F"/>
<path d="M137.426 189.5C132.059 189.5 127.426 188.283 123.526 185.85C119.659 183.417 116.676 180.05 114.576 175.75C112.476 171.45 111.426 166.517 111.426 160.95C111.426 155.283 112.492 150.317 114.626 146.05C116.759 141.783 119.776 138.467 123.676 136.1C127.576 133.7 132.159 132.5 137.426 132.5C142.826 132.5 147.476 133.717 151.376 136.15C155.276 138.55 158.259 141.9 160.326 146.2C162.426 150.467 163.476 155.383 163.476 160.95C163.476 166.583 162.426 171.55 160.326 175.85C158.226 180.117 155.226 183.467 151.326 185.9C147.426 188.3 142.792 189.5 137.426 189.5ZM137.426 181.05C143.026 181.05 147.192 179.183 149.926 175.45C152.659 171.717 154.026 166.883 154.026 160.95C154.026 154.85 152.642 150 149.876 146.4C147.109 142.767 142.959 140.95 137.426 140.95C133.659 140.95 130.559 141.8 128.126 143.5C125.692 145.2 123.876 147.55 122.676 150.55C121.476 153.55 120.876 157.017 120.876 160.95C120.876 167.017 122.276 171.883 125.076 175.55C127.876 179.217 131.992 181.05 137.426 181.05Z" fill="#0D332F"/>
<path d="M172.434 188V134H216.684V188H207.784V142.45H181.334V188H172.434Z" fill="#0D332F"/>
<path d="M272.888 134V188H264.288V148.2L235.988 188H228.637V134H237.238V173.25L265.587 134H272.888Z" fill="#0D332F"/>
<path d="M317.391 188V168.55C315.591 169.45 313.407 170.217 310.841 170.85C308.307 171.483 305.591 171.8 302.691 171.8C297.191 171.8 292.757 170.567 289.391 168.1C286.024 165.633 283.824 162.083 282.791 157.45C282.491 156.05 282.274 154.6 282.141 153.1C282.041 151.6 281.974 150.233 281.941 149C281.907 147.767 281.891 146.867 281.891 146.3V134H290.891V146.3C290.891 147.267 290.924 148.467 290.991 149.9C291.057 151.3 291.224 152.667 291.491 154C292.157 157.3 293.541 159.783 295.641 161.45C297.774 163.117 300.774 163.95 304.641 163.95C307.241 163.95 309.641 163.617 311.841 162.95C314.041 162.283 315.891 161.4 317.391 160.3V134H326.341V188H317.391Z" fill="#0D332F"/>
<path d="M361.759 189.5C356.459 189.5 351.826 188.333 347.859 186C343.926 183.633 340.859 180.35 338.659 176.15C336.459 171.917 335.359 166.983 335.359 161.35C335.359 155.45 336.443 150.35 338.609 146.05C340.776 141.717 343.793 138.383 347.659 136.05C351.559 133.683 356.126 132.5 361.359 132.5C366.793 132.5 371.409 133.75 375.209 136.25C379.043 138.75 381.909 142.317 383.809 146.95C385.743 151.583 386.576 157.1 386.309 163.5H377.309V160.3C377.209 153.667 375.859 148.717 373.259 145.45C370.659 142.15 366.793 140.5 361.659 140.5C356.159 140.5 351.976 142.267 349.109 145.8C346.243 149.333 344.809 154.4 344.809 161C344.809 167.367 346.243 172.3 349.109 175.8C351.976 179.3 356.059 181.05 361.359 181.05C364.926 181.05 368.026 180.233 370.659 178.6C373.293 176.967 375.359 174.617 376.859 171.55L385.409 174.5C383.309 179.267 380.143 182.967 375.909 185.6C371.709 188.2 366.993 189.5 361.759 189.5ZM341.809 163.5V156.35H381.709V163.5H341.809Z" fill="#0D332F"/>
<path d="M418.191 189.5C412.725 189.5 408.075 188.283 404.241 185.85C400.441 183.383 397.541 180 395.541 175.7C393.541 171.4 392.508 166.5 392.441 161C392.508 155.367 393.558 150.417 395.591 146.15C397.658 141.85 400.608 138.5 404.441 136.1C408.275 133.7 412.891 132.5 418.291 132.5C423.991 132.5 428.891 133.9 432.991 136.7C437.125 139.5 439.891 143.333 441.291 148.2L432.491 150.85C431.358 147.717 429.508 145.283 426.941 143.55C424.408 141.817 421.491 140.95 418.191 140.95C414.491 140.95 411.441 141.817 409.041 143.55C406.641 145.25 404.858 147.617 403.691 150.65C402.525 153.65 401.925 157.1 401.891 161C401.958 167 403.341 171.85 406.041 175.55C408.775 179.217 412.825 181.05 418.191 181.05C421.725 181.05 424.658 180.25 426.991 178.65C429.325 177.017 431.091 174.667 432.291 171.6L441.291 173.95C439.425 178.983 436.508 182.833 432.541 185.5C428.575 188.167 423.791 189.5 418.191 189.5Z" fill="#0D332F"/>
<path d="M449.446 188L449.496 134H458.496V160L481.146 134H492.696L468.846 161L495.496 188H483.046L458.496 162V188H449.446Z" fill="#0D332F"/>
<path d="M542.673 134V188H534.073V148.2L505.773 188H498.423V134H507.023V173.25L535.373 134H542.673Z" fill="#0D332F"/>
<path d="M548.676 188L569.326 160.7L549.126 134H559.726L574.526 153.8L589.176 134H599.776L579.576 160.7L600.276 188H589.626L574.526 167.6L559.326 188H548.676Z" fill="#0D332F"/>
<path d="M32.5 310.5V289C27.2333 289.833 22.4333 289.267 18.1 287.3C13.8 285.3 10.3667 282.083 7.8 277.65C5.26667 273.183 4 267.65 4 261.05C4 254.417 5.26667 248.867 7.8 244.4C10.3667 239.933 13.8 236.717 18.1 234.75C22.4333 232.75 27.2333 232.167 32.5 233V216.55H40.6V233C45.8667 232.167 50.65 232.75 54.95 234.75C59.2833 236.717 62.7167 239.933 65.25 244.4C67.8167 248.867 69.1 254.417 69.1 261.05C69.1 267.65 67.8167 273.183 65.25 277.65C62.7167 282.083 59.2833 285.3 54.95 287.3C50.65 289.267 45.8667 289.833 40.6 289V310.5H32.5ZM32.5 280.85V241.2C29.8 240.733 27.2833 240.817 24.95 241.45C22.6167 242.05 20.5667 243.183 18.8 244.85C17.0333 246.517 15.65 248.7 14.65 251.4C13.65 254.1 13.15 257.317 13.15 261.05C13.15 264.75 13.65 267.95 14.65 270.65C15.6833 273.35 17.0833 275.533 18.85 277.2C20.65 278.833 22.7167 279.967 25.05 280.6C27.3833 281.2 29.8667 281.283 32.5 280.85ZM40.6 280.85C43.2333 281.283 45.7167 281.2 48.05 280.6C50.3833 280 52.45 278.883 54.25 277.25C56.05 275.583 57.45 273.4 58.45 270.7C59.45 268 59.95 264.783 59.95 261.05C59.95 257.283 59.45 254.05 58.45 251.35C57.4833 248.65 56.1167 246.467 54.35 244.8C52.5833 243.133 50.5167 242 48.15 241.4C45.8167 240.8 43.3 240.733 40.6 241.2V280.85Z" fill="#0D332F"/>
<path d="M102.945 289.5C97.8779 289.5 93.6112 288.25 90.1445 285.75C86.6779 283.217 84.0445 279.8 82.2445 275.5C80.4779 271.167 79.5945 266.317 79.5945 260.95C79.5945 255.517 80.4779 250.65 82.2445 246.35C84.0445 242.05 86.6779 238.667 90.1445 236.2C93.6445 233.733 97.9279 232.5 102.995 232.5C107.995 232.5 112.295 233.75 115.895 236.25C119.528 238.717 122.311 242.1 124.245 246.4C126.178 250.7 127.145 255.55 127.145 260.95C127.145 266.35 126.178 271.2 124.245 275.5C122.311 279.8 119.528 283.217 115.895 285.75C112.295 288.25 107.978 289.5 102.945 289.5ZM78.0945 312V234H86.0445V273.75H87.0445V312H78.0945ZM101.845 281.35C105.411 281.35 108.361 280.45 110.695 278.65C113.028 276.85 114.778 274.417 115.945 271.35C117.111 268.25 117.695 264.783 117.695 260.95C117.695 257.15 117.111 253.717 115.945 250.65C114.811 247.583 113.045 245.15 110.645 243.35C108.278 241.55 105.261 240.65 101.595 240.65C98.0945 240.65 95.1945 241.517 92.8945 243.25C90.5945 244.95 88.8779 247.333 87.7445 250.4C86.6112 253.433 86.0445 256.95 86.0445 260.95C86.0445 264.883 86.5945 268.4 87.6945 271.5C88.8279 274.567 90.5612 276.983 92.8945 278.75C95.2279 280.483 98.2112 281.35 101.845 281.35Z" fill="#0D332F"/>
<path d="M141.652 312L152.102 283.6L152.252 292L128.652 234H138.002L156.502 280.65H153.302L170.652 234H179.702L150.302 312H141.652Z" fill="#0D332F"/>
<path d="M185.911 288L185.961 234H194.961V260L217.611 234H229.161L205.311 261L231.961 288H219.511L194.961 262V288H185.911Z" fill="#0D332F"/>
<path d="M249.238 288V242.1H230.438V234H276.938V242.1H258.137V288H249.238Z" fill="#0D332F"/>
<path d="M306.426 289.5C301.059 289.5 296.426 288.283 292.526 285.85C288.659 283.417 285.676 280.05 283.576 275.75C281.476 271.45 280.426 266.517 280.426 260.95C280.426 255.283 281.492 250.317 283.626 246.05C285.759 241.783 288.776 238.467 292.676 236.1C296.576 233.7 301.159 232.5 306.426 232.5C311.826 232.5 316.476 233.717 320.376 236.15C324.276 238.55 327.259 241.9 329.326 246.2C331.426 250.467 332.476 255.383 332.476 260.95C332.476 266.583 331.426 271.55 329.326 275.85C327.226 280.117 324.226 283.467 320.326 285.9C316.426 288.3 311.792 289.5 306.426 289.5ZM306.426 281.05C312.026 281.05 316.192 279.183 318.926 275.45C321.659 271.717 323.026 266.883 323.026 260.95C323.026 254.85 321.642 250 318.876 246.4C316.109 242.767 311.959 240.95 306.426 240.95C302.659 240.95 299.559 241.8 297.126 243.5C294.692 245.2 292.876 247.55 291.676 250.55C290.476 253.55 289.876 257.017 289.876 260.95C289.876 267.017 291.276 271.883 294.076 275.55C296.876 279.217 300.992 281.05 306.426 281.05Z" fill="#0D332F"/>
<path d="M341.434 288V234H364.434C365.801 234 367.268 234.083 368.834 234.25C370.434 234.383 371.884 234.633 373.184 235C376.084 235.767 378.468 237.35 380.334 239.75C382.234 242.117 383.184 245.117 383.184 248.75C383.184 250.783 382.868 252.55 382.234 254.05C381.634 255.55 380.768 256.85 379.634 257.95C379.134 258.45 378.584 258.9 377.984 259.3C377.384 259.7 376.784 260.017 376.184 260.25C377.351 260.45 378.534 260.9 379.734 261.6C381.634 262.633 383.118 264.083 384.184 265.95C385.284 267.817 385.834 270.2 385.834 273.1C385.834 276.767 384.951 279.8 383.184 282.2C381.418 284.567 378.984 286.2 375.884 287.1C374.584 287.467 373.151 287.717 371.584 287.85C370.018 287.95 368.501 288 367.034 288H341.434ZM350.434 280.75H366.534C367.234 280.75 368.068 280.683 369.034 280.55C370.034 280.417 370.918 280.25 371.684 280.05C373.418 279.55 374.668 278.617 375.434 277.25C376.234 275.883 376.634 274.4 376.634 272.8C376.634 270.667 376.034 268.933 374.834 267.6C373.668 266.267 372.118 265.433 370.184 265.1C369.484 264.9 368.718 264.783 367.884 264.75C367.084 264.717 366.368 264.7 365.734 264.7H350.434V280.75ZM350.434 257.35H363.834C364.768 257.35 365.751 257.3 366.784 257.2C367.818 257.067 368.718 256.85 369.484 256.55C371.018 255.983 372.134 255.05 372.834 253.75C373.568 252.417 373.934 250.967 373.934 249.4C373.934 247.667 373.534 246.15 372.734 244.85C371.968 243.517 370.784 242.6 369.184 242.1C368.118 241.7 366.918 241.483 365.584 241.45C364.284 241.383 363.451 241.35 363.084 241.35H350.434V257.35Z" fill="#0D332F"/>
<path d="M793.547 6.32001C795.42 6.32001 797.25 6.86505 798.833 7.89702C804.308 11.4654 817.443 20.0244 820.935 22.2841C825.828 21.4601 830.368 20.7556 834.295 20.1768C839.792 19.3671 845.234 21.7205 848.619 26.2594L848.7 26.3662C849.37 27.2651 848.857 28.57 847.764 28.6972C816.371 32.347 722.274 42.1892 775.958 65.6141V67.0731C753.667 58.8316 748.194 51.5572 752.215 45.3074C754.138 42.3182 758.234 39.5634 763.7 37.0493C772.411 33.0427 784.603 29.6475 797.033 26.8891L792.165 23.2238H796.025L802.881 25.6396C804.281 25.3514 805.677 25.0708 807.065 24.7989L787.927 6.32001H793.547Z" fill="#FF6D2A"/>
<path d="M784.433 89.6973H775.945V44.505C778.408 43.7497 781.225 43.0057 784.433 42.2795V89.6973Z" fill="#FF6D2A"/>
<path d="M784.433 36.7038C781.553 37.52 778.693 38.4086 775.945 39.3613L775.946 23.3112H784.434L784.433 36.7038Z" fill="#FF6D2A"/>
</svg>
