<svg width="16" height="16" viewBox="0 0 16 16" fill="none" xmlns="http://www.w3.org/2000/svg">
<path d="M14.696 2.10967L14.384 4.34167C13.696 4.29367 13.16 4.42167 12.776 4.72567C12.392 5.02967 12.136 5.45367 12.008 5.99767C11.88 6.54167 11.856 7.15767 11.936 7.84567H14.696V13.6297H9.392V7.36567C9.392 5.47767 9.84 4.05367 10.736 3.09367C11.648 2.13367 12.968 1.80567 14.696 2.10967ZM7.304 2.10967L6.992 4.34167C6.304 4.29367 5.768 4.42167 5.384 4.72567C5 5.02967 4.744 5.45367 4.616 5.99767C4.488 6.54167 4.464 7.15767 4.544 7.84567H7.304V13.6297H2V7.36567C2 5.47767 2.448 4.05367 3.344 3.09367C4.256 2.13367 5.576 1.80567 7.304 2.10967Z" fill="white"/>
</svg>
